<svg width="132" height="32" viewBox="0 0 132 32" fill="none" xmlns="http://www.w3.org/2000/svg">
<rect width="32" height="32" rx="8.09573" fill="#5648D6"/>
<rect x="9.82812" y="9.83057" width="12.7219" height="12.7219" rx="2.31306" fill="black"/>
<path fill-rule="evenodd" clip-rule="evenodd" d="M16.203 14.8214C16.5662 14.8214 16.9146 14.6771 17.1715 14.4202C17.4284 14.1634 17.5727 13.815 17.5727 13.4517C17.5727 13.0885 17.4284 12.7401 17.1715 12.4832C16.9146 12.2263 16.5662 12.082 16.203 12.082C15.8397 12.082 15.4913 12.2263 15.2345 12.4832C14.9776 12.7401 14.8333 13.0885 14.8333 13.4517C14.8333 13.815 14.9776 14.1634 15.2345 14.4202C15.4913 14.6771 15.8397 14.8214 16.203 14.8214ZM14.1484 18.4833V14.4669C14.3744 14.5598 14.6077 14.6723 14.844 14.8015C14.8876 14.8267 14.9308 14.8506 14.9737 14.8739C15.4903 15.1709 15.9773 15.5165 16.4281 15.9062C17.2451 16.6118 17.9279 17.4503 18.2575 18.2881V18.4833C18.2575 19.3918 17.6153 20.3002 16.203 20.3002C14.7904 20.3002 14.1484 19.2619 14.1484 18.4833ZM16.7264 15.561C16.6321 15.4795 16.5362 15.3997 16.4388 15.3218C16.9997 15.3207 17.5631 15.0906 18.2575 14.5934V17.2939C17.8607 16.6657 17.3199 16.0735 16.7264 15.561Z" fill="white"/>
<path d="M19.9375 6.57959H13.8767C10.6055 6.57959 8.96994 6.57959 7.95372 7.59581C6.9375 8.61203 6.9375 10.2476 6.9375 13.5188V21.7164M25.442 9.31687V11.5739V18.1449C25.442 21.4161 25.442 23.0517 24.4258 24.0679C23.4096 25.0841 21.774 25.0841 18.5028 25.0841H12.2628" stroke="white" stroke-width="0.578266"/>
<path d="M9.60156 25.3364V23.162H7.3013" stroke="white" stroke-width="0.494143" stroke-linecap="round"/>
<path d="M22.5547 6.30859V8.48302H24.8549" stroke="white" stroke-width="0.494143" stroke-linecap="round"/>
<path d="M47.1774 10.9994V14.315H51.0896C51.7885 14.315 52.3541 14.1926 52.7864 13.9478C53.2258 13.6961 53.4456 13.254 53.4456 12.6215C53.4456 11.921 53.1574 11.4585 52.581 11.234C52.0839 11.0776 51.4498 10.9994 50.6789 10.9994H47.1774ZM47.1774 16.8043V20.8137H51.0896C51.7885 20.8137 52.3324 20.7253 52.7215 20.5485C53.4276 20.222 53.7806 19.5963 53.7806 18.6713C53.7806 17.8892 53.4384 17.3518 52.7539 17.0594C52.3721 16.8962 51.8353 16.8111 51.1436 16.8043H47.1774ZM51.738 8.38768C53.6906 8.41488 55.0739 8.94879 55.8881 9.98939C56.378 10.6287 56.623 11.3939 56.623 12.2848C56.623 13.203 56.378 13.941 55.8881 14.4987C55.6143 14.8115 55.2108 15.0972 54.6776 15.3557C55.4918 15.6345 56.1042 16.0766 56.5149 16.6819C56.9328 17.2872 57.1417 18.0218 57.1417 18.8855C57.1417 19.7765 56.9039 20.5757 56.4284 21.283C56.1258 21.7523 55.7476 22.1468 55.2937 22.4665C54.7821 22.8337 54.1769 23.0854 53.478 23.2214C52.7864 23.3574 52.0334 23.4254 51.2193 23.4254H44V8.38768H51.738Z" fill="black"/>
<path d="M64.3693 18.0184C64.1748 18.134 63.9767 18.2292 63.7749 18.304C63.5804 18.372 63.3102 18.4367 62.9644 18.4979L62.2727 18.6203C61.6243 18.7291 61.1596 18.8617 60.8786 19.0182C60.403 19.2834 60.1653 19.6949 60.1653 20.2526C60.1653 20.7491 60.3094 21.1096 60.5976 21.334C60.893 21.5517 61.2496 21.6605 61.6675 21.6605C62.3303 21.6605 62.9392 21.4769 63.4939 21.1096C64.0559 20.7423 64.3477 20.0724 64.3693 19.0998V18.0184ZM62.4997 16.6615C63.0689 16.5935 63.4759 16.5085 63.7209 16.4065C64.1604 16.2296 64.3801 15.9542 64.3801 15.5801C64.3801 15.1244 64.2108 14.8115 63.8722 14.6415C63.5408 14.4647 63.0508 14.3763 62.4024 14.3763C61.6747 14.3763 61.1596 14.5463 60.857 14.8864C60.6408 15.138 60.4967 15.4781 60.4247 15.9066H57.4526C57.5175 14.934 57.8057 14.1348 58.3172 13.5091C59.1314 12.5297 60.5291 12.04 62.5105 12.04C63.8001 12.04 64.9457 12.2814 65.9472 12.7643C66.9487 13.2472 67.4494 14.1586 67.4494 15.4985V20.5995C67.4494 20.9532 67.4566 21.3816 67.471 21.8849C67.4926 22.2658 67.5539 22.5243 67.6548 22.6603C67.7556 22.7963 67.9069 22.9085 68.1087 22.997V23.4254H64.7584C64.6647 23.201 64.5999 22.9902 64.5639 22.7929C64.5278 22.5957 64.499 22.3712 64.4774 22.1196C64.0523 22.5549 63.5624 22.9255 63.0076 23.2316C62.3448 23.5921 61.5955 23.7723 60.7597 23.7723C59.6934 23.7723 58.8108 23.4867 58.1119 22.9153C57.4202 22.3372 57.0744 21.5211 57.0744 20.4669C57.0744 19.0998 57.6328 18.1102 58.7495 17.4981C59.3619 17.1648 60.2625 16.9268 61.4514 16.7839L62.4997 16.6615Z" fill="black"/>
<path d="M74.7419 12.0604C76.2909 12.0604 77.5014 12.5875 78.3732 13.6417C79.2521 14.6959 79.6916 16.0562 79.6916 17.7225C79.6916 19.4501 79.2594 20.8817 78.3948 22.0176C77.5302 23.1534 76.3234 23.7213 74.7743 23.7213C73.8017 23.7213 73.0199 23.5377 72.4291 23.1704C72.0761 22.9527 71.6942 22.5719 71.2835 22.0278V23.4254H68.2683V8.40808H71.3376V13.7539C71.7266 13.237 72.1553 12.8426 72.6237 12.5705C73.1784 12.2304 73.8845 12.0604 74.7419 12.0604ZM73.953 21.3238C74.7455 21.3238 75.3615 21.0212 75.801 20.4158C76.2405 19.8105 76.4603 19.0148 76.4603 18.0286C76.4603 17.2396 76.3522 16.5867 76.136 16.0698C75.7254 15.0904 74.9688 14.6007 73.8665 14.6007C72.7497 14.6007 71.9824 15.0802 71.5645 16.0392C71.3484 16.5493 71.2403 17.209 71.2403 18.0184C71.2403 18.9706 71.4637 19.7595 71.9104 20.3852C72.3571 21.011 73.0379 21.3238 73.953 21.3238Z" fill="black"/>
<path d="M80.5646 25.5577L80.9536 25.5781C81.2562 25.5917 81.5444 25.5815 81.8182 25.5475C82.092 25.5135 82.3226 25.4352 82.5099 25.3128C82.69 25.1972 82.8557 24.9557 83.007 24.5885C83.1655 24.2212 83.2304 23.9968 83.2015 23.9151L78.8786 12.3052H82.3045L84.8767 20.5077L87.3083 12.3052H90.583L86.541 23.2418C85.7629 25.3502 85.1469 26.6561 84.693 27.1594C84.2391 27.6695 83.3312 27.9245 81.9695 27.9245C81.6957 27.9245 81.476 27.9211 81.3103 27.9143C81.1446 27.9143 80.896 27.9041 80.5646 27.8837V25.5577Z" fill="black"/>
<path d="M99.8099 13.1724C99.8099 12.3903 99.5902 11.8326 99.1507 11.4993C98.7184 11.166 98.1096 10.9994 97.3242 10.9994H94.2225V15.4271H97.3242C98.1096 15.4271 98.7184 15.2468 99.1507 14.8864C99.5902 14.5259 99.8099 13.9546 99.8099 13.1724ZM103.106 13.152C103.106 14.9272 102.631 16.182 101.68 16.9166C100.729 17.6511 99.3704 18.0184 97.6052 18.0184H94.2225V23.4254H90.9155V8.38768H97.8538C99.4533 8.38768 100.729 8.77535 101.68 9.55071C102.631 10.3261 103.106 11.5265 103.106 13.152Z" fill="black"/>
<path d="M103.731 8.38768H107.221L113.565 18.8855V8.38768H116.667V23.4254H113.338L106.832 12.7439V23.4254H103.731V8.38768Z" fill="black"/>
<path d="M128.671 13.0806C128.419 12.0536 127.803 11.3361 126.823 10.928C126.276 10.7035 125.667 10.5913 124.997 10.5913C123.714 10.5913 122.659 11.0504 121.83 11.9686C121.009 12.88 120.598 14.2538 120.598 16.0902C120.598 17.9402 121.045 19.2494 121.938 20.018C122.832 20.7865 123.848 21.1708 124.986 21.1708C126.103 21.1708 127.018 20.8681 127.731 20.2628C128.444 19.6507 128.884 18.8515 129.05 17.8653H125.364V15.3557H132V23.4254H129.795L129.46 21.5483C128.819 22.2624 128.243 22.7657 127.731 23.0582C126.852 23.5683 125.771 23.8233 124.489 23.8233C122.378 23.8233 120.649 23.133 119.301 21.7523C117.896 20.3648 117.194 18.4673 117.194 16.0596C117.194 13.6247 117.904 11.6727 119.323 10.2036C120.742 8.73454 122.619 8 124.954 8C126.978 8 128.603 8.4863 129.828 9.45889C131.06 10.4247 131.766 11.6319 131.946 13.0806H128.671Z" fill="black"/>
</svg>
