<?xml version="1.0" encoding="utf-8"?>
<!-- Generator: Adobe Illustrator 16.0.0, SVG Export Plug-In . SVG Version: 6.00 Build 0)  -->
<!DOCTYPE svg PUBLIC "-//W3C//DTD SVG 1.1//EN" "http://www.w3.org/Graphics/SVG/1.1/DTD/svg11.dtd">
<svg version="1.1" id="Layer_1" xmlns="http://www.w3.org/2000/svg" xmlns:xlink="http://www.w3.org/1999/xlink" x="0px" y="0px"
	 width="1515px" height="399px" viewBox="0 0 1515 399" enable-background="new 0 0 1515 399" xml:space="preserve">
<rect x="13.918" y="13.55" fill="#FFCD12" width="1116.09" height="372.056"/>
<rect x="1130.008" y="13.978" width="372.029" height="372.055"/>
<path fill="#FFFFFF" d="M1254.504,256.354c6.568-5.475,7.688-12.281,7.688-18.358v-25.582h-35.712v34.716
	c0,4.958-4.038,8.984-8.996,8.984s-8.657-4.026-8.657-8.984v-98.374c0-4.97,3.7-8.984,8.657-8.984s8.996,4.014,8.996,8.984v34.931
	h35.687v-36.239c-0.013-20.021-13.099-36.516-44.984-36.541c-32.729,0-45.109,16.559-45.109,36.591v102.69
	c0,19.869,15.741,34.879,35.912,34.879h11.086L1254.504,256.354z"/>
<polygon fill="#FFFFFF" points="1395.371,260.379 1395.371,147.509 1370.696,147.509 1370.696,114.265 1459.947,114.265 
	1459.947,147.509 1435.171,147.509 1435.171,284.865 1424.589,284.865 "/>
<polygon fill="#FFCD12" points="1411.339,285.104 1324.439,212.299 1234.371,285.104 "/>
<polygon fill="none" points="1411.339,285.104 1324.439,212.299 1234.371,285.104 "/>
<path fill="#FFFFFF" d="M1349.242,114.441h-49.779l-29.016,130.134l54.019-43.587l56.31,47.224L1349.242,114.441z M1314.827,192.645
	l9.639-49.174l9.55,49.174H1314.827z"/>
<path fill="#FFFFFF" d="M1466.918,123.337c0-5.863,4.744-10.607,10.658-10.607c5.876,0,10.606,4.744,10.606,10.607
	c0,5.927-4.73,10.671-10.606,10.671C1471.662,134.008,1466.918,129.264,1466.918,123.337 M1486.334,123.337
	c0-4.807-3.926-8.732-8.758-8.732c-4.882,0-8.796,3.926-8.796,8.732c0,4.87,3.913,8.809,8.796,8.809
	C1482.408,132.146,1486.334,128.207,1486.334,123.337 M1475.311,124.042v5.411h-1.95v-12.507h4.052c2.277,0,4.669,0.629,4.669,3.447
	c0,1.447-0.881,2.58-2.556,2.919v0.063c1.725,0.327,1.926,1.107,2.127,2.454c0.163,1.195,0.314,2.492,0.729,3.624h-2.479
	c-0.138-0.705-0.339-1.51-0.428-2.24c-0.138-1.057-0.138-2.051-0.705-2.643c-0.479-0.528-1.119-0.466-1.812-0.528H1475.311z
	 M1477.375,122.104c1.85-0.063,2.265-0.843,2.265-1.787c0-0.931-0.415-1.422-1.976-1.422h-2.354v3.208L1477.375,122.104
	L1477.375,122.104z"/>
<g>
	<g>
		<path d="M214.068,175.499c-1.35-13.79-10.413-21.697-24.682-21.697c-16.004,0-25.646,13.055-25.646,38.612
			c0,18.57,4.242,36.039,27.381,36.039c14.655,0,21.597-9.745,23.332-22.432h43.771c-4.049,34.199-29.695,54.793-66.332,54.793
			c-45.893,0-73.659-26.846-73.659-69.871c0-42.841,30.466-69.502,69.224-69.502c42.422,0,66.139,20.042,69.803,54.058
			L214.068,175.499L214.068,175.499z"/>
		<path d="M344.038,257.32l-1.928-10.297c-11.377,10.112-22.946,13.055-37.987,13.055c-19.09,0-36.058-9.01-36.058-29.051
			c0-43.761,71.924-23.903,71.924-41.922c0-6.987-8.87-7.906-13.112-7.906c-5.592,0-13.112,1.103-14.076,9.377h-38.565
			c0-20.41,15.233-32.361,55.148-32.361c47.821,0,50.713,16.916,50.713,39.899v45.048c0,5.516,0.193,8.273,5.399,12.318v1.84
			H344.038z M339.989,214.663c-13.112,6.067-30.466,3.125-30.466,15.628c0,4.781,4.819,8.09,12.726,8.09
			C336.325,238.382,340.953,227.9,339.989,214.663z"/>
		<path d="M401.31,160.973h36.444v19.49h0.386c5.593-15.077,15.427-22.248,31.045-22.248c1.735,0,3.472,0.368,5.207,0.551v38.245
			c-2.699-0.368-5.592-1.104-8.292-1.104c-16.39,0-24.682,7.354-24.682,28.132v33.279H401.31V160.973z"/>
		<path d="M520.862,160.973v14.342h0.386c5.592-11.768,20.054-17.1,31.624-17.1c30.466,0,45.121,23.719,45.121,50.196
			c0,37.877-24.683,51.667-47.242,51.667c-10.991,0-19.09-4.229-25.839-12.319v42.29h-40.107V160.973H520.862z M557.884,208.963
			c0-15.261-6.94-22.432-17.547-22.432c-9.641,0-16.197,8.826-16.197,21.697c0,13.422,5.979,22.615,16.391,22.615
			C551.136,230.843,557.884,222.202,557.884,208.963z"/>
		<path d="M680.332,257.32c-52.641,2.758-59.004-0.735-59.004-34.016v-40.268h-14.27v-22.064h14.848v-29.97h39.528v29.97h19.283
			v22.064h-19.283v34.936c0,8.825,1.351,11.95,12.534,11.95h6.363V257.32L680.332,257.32z"/>
		<path d="M699.421,160.973h36.444v19.49h0.386c5.592-15.077,15.426-22.248,31.045-22.248c1.735,0,3.471,0.368,5.207,0.551v38.245
			c-2.7-0.368-5.592-1.104-8.292-1.104c-16.39,0-24.682,7.354-24.682,28.132v33.279h-40.108V160.973L699.421,160.973z"/>
		<path d="M855.225,257.32l-1.928-10.297c-11.377,10.112-22.946,13.055-37.987,13.055c-19.09,0-36.058-9.01-36.058-29.051
			c0-43.761,71.924-23.903,71.924-41.922c0-6.987-8.87-7.906-13.111-7.906c-5.593,0-13.112,1.103-14.076,9.377h-38.565
			c0-20.41,15.233-32.361,55.148-32.361c47.82,0,50.713,16.916,50.713,39.899v45.048c0,5.516,0.192,8.273,5.398,12.318v1.84H855.225
			z M851.175,214.663c-13.112,6.067-30.466,3.125-30.466,15.628c0,4.781,4.82,8.09,12.726,8.09
			C847.511,238.382,852.139,227.9,851.175,214.663z"/>
	</g>
	<g>
		<path d="M979.808,197.747c-0.192-4.229-1.734-7.539-4.241-9.929c-2.508-2.574-5.979-3.861-10.413-3.861
			c-15.041,0-17.548,14.893-17.548,26.293c0,14.525,5.785,24.087,17.548,24.087c10.413,0,14.462-6.803,15.618-14.342h40.494
			c-3.471,29.235-28.152,40.083-56.111,40.083c-32.587,0-57.655-17.467-57.655-50.012c0-32.913,24.296-51.852,57.655-51.852
			c26.996,0,52.447,11.032,55.341,39.532H979.808z"/>
	</g>
</g>
</svg>
