<svg xmlns="http://www.w3.org/2000/svg" id="Layer_1" viewBox="0 0 508.47 297.2"><defs><style>      .st0 {        fill: #fff;      }    </style></defs><path class="st0" d="M482.6,56.48c1.36-.67,3.18-.38,4.97.5.92.45,1.64,1.12,2.07,2.08.49,1.09.46,2.11-.33,3.05-.35.42-.71.82-1.1,1.2-3.88,3.81-7.78,7.59-11.65,11.42-1.53,1.51-3.32,2.45-5.37,3.04-2.87.83-5.74,1.69-8.55,2.69-10.09,3.59-18.79,9.36-26.07,17.19-4.26,4.58-8.37,9.3-12.47,14.03-20.68,23.83-41.84,47.23-63.26,70.39-14.01,15.15-29.39,28.78-45.7,41.37-9.67,7.47-20.26,13.35-31.71,17.66-1.27.48-2.54.97-3.84,1.36-.58.18-1.24.21-1.86.18-3.01-.16-5.97.12-8.92.66-3.12.57-6.25,1.11-9.39,1.56-3,.42-5.97.2-8.86-.77-.28-.09-.63-.47-.64-.72,0-.27.31-.69.58-.79,1.77-.68,3.54-1.41,5.37-1.92,15.84-4.49,31.08-10.42,45.54-18.35,12.29-6.74,23.58-14.88,34.09-24.14,15.47-13.62,29.87-28.31,43.43-43.81,13.79-15.76,27.34-31.73,41.01-47.59,4.85-5.63,9.7-11.27,14.58-16.87,7.78-8.94,16.51-16.8,26.53-23.17,5.6-3.56,11.47-6.57,17.66-8.96,1.1-.42,2.23-.74,3.89-1.29Z"></path><path class="st0" d="M224.08,176.93c.35,2.42-1.07,3.68-2.83,4.82-5.25,3.4-10.48,6.81-15.68,10.28-12.73,8.52-25.41,17.1-37.86,26.02-8.64,6.19-17.77,11.56-27.49,15.89-5.31,2.36-10.77,4.31-16.33,5.97-4.63,1.38-9.37,2.08-14.17,2.48-1.63.13-3.26.21-4.87.41-1.91.24-3.79.1-5.69-.16-6.46-.89-12.51-2.96-18.13-6.26-3.98-2.34-7.28-5.39-9.58-9.44-2.7-4.76-3.6-9.91-2.48-15.24,2.47-11.79,8.41-21.31,18.76-27.82,4.71-2.96,9.87-3.95,15.34-3.68,3.72.19,7.4.74,11.01,1.64,4.83,1.21,9.7,2.36,14.41,3.96,6.41,2.17,12.92,2.66,19.58,2.09,2.44-.21,4.88-.37,7.31-.61,2.71-.27,5.41-.62,7.88-1.91.79-.41,1.55-.48,2.35.12-.24,1.48-.96,2.39-2.59,2.56-2.37.25-4.53,1.26-6.72,2.12-1.18.46-2.35.94-3.53,1.42-2.14.87-4.37,1.17-6.66,1.07-2.99-.12-5.97-.25-8.96-.33-5.63-.14-11.2-.84-16.71-2-4.79-1.01-9.57-2.03-14.38-2.97-3.49-.68-7-.88-10.55-.38-4.54.65-8.54,2.43-11.86,5.57-4.93,4.66-8.28,10.36-9.95,16.89-2.02,7.86.18,14.7,6.02,20.33,2.65,2.56,5.81,4.32,9.25,5.58,6.75,2.47,13.71,3.3,20.86,2.75,7.86-.6,15.3-2.84,22.56-5.78,10.82-4.38,20.7-10.41,30.15-17.2,1.1-.79,2.22-1.58,3.29-2.41,13.93-10.9,28.56-20.81,43.2-30.7,1.95-1.32,3.92-2.62,6.13-3.48,1.77-.69,3.56-1.34,5.34-2.01,1.28-.49,2.47-.34,3.58.42Z"></path><path class="st0" d="M304.19,195.32c-.6-.62-.64-1.19.04-1.63,1.74-1.15,3.44-2.36,5.26-3.36,6.35-3.5,12.63-7.11,18.62-11.22,7.65-5.25,14.76-11.12,21.13-17.88,3.32-3.52,6.03-7.47,8.38-11.68.67-1.2,1.2-2.44,1.35-3.82.12-1.12-.08-2.16-.68-3.12-1.78-2.84-5.57-3.96-8.61-2.53-.33.15-.64.34-.95.53-5.22,3.11-10.3,6.43-14.98,10.32-11.04,9.18-21.16,19.3-30.78,29.93-3.83,4.24-7.53,8.59-11.34,12.85-6.35,7.09-12.77,14.12-19.11,21.22-1.56,1.75-3.41,2.89-5.67,3.56-.65-.63-.6-1.31-.22-1.99.21-.39.54-.72.84-1.05,1.66-1.79,3.39-3.52,4.99-5.36,11.12-12.8,22.18-25.65,33.34-38.41,5.43-6.21,11.09-12.22,17.09-17.89,8.33-7.86,17.23-14.99,27.02-20.95,1.16-.71,2.36-1.34,3.59-1.92,1.59-.76,3.29-.96,5.04-.79,4.22.4,7.62,3.64,8.22,7.83.28,2,.1,3.98-.34,5.94-1.13,5.04-3.35,9.57-6.39,13.7-2.59,3.52-5.58,6.68-8.69,9.73-11.4,11.16-24.58,19.67-39.07,26.23-2.58,1.17-5.27,1.89-8.09,1.78Z"></path><path class="st0" d="M264.65,171.42c.11,1.71-.49,2.87-1.5,3.88-.83.83-1.61,1.72-2.43,2.57-10.28,10.6-20.56,21.21-30.85,31.81-.88.91-1.81,1.78-2.68,2.7-8.52,8.87-18.14,16.35-28.42,23.06-6.16,4.02-12.77,5.86-20.05,5.59-.99-.04-2-.11-2.99-.03-2.79.23-5.44-.32-7.91-1.53-2.11-1.03-4.09-2.33-6.15-3.47-2.01-1.11-2.83-2.9-3.25-5.12,1.29-.47,2.4-.15,3.49.29.76.3,1.47.7,2.22,1.03,5.38,2.4,10.96,3.71,16.89,3.33,5.16-.33,9.95-1.86,14.49-4.25,4.03-2.11,7.67-4.8,11.23-7.61,5.12-4.06,9.88-8.52,14.39-13.24,5.44-5.7,10.79-11.49,16.22-17.21,7-7.37,14.37-14.33,22.46-20.5,1.44-1.1,2.88-1.83,4.85-1.29Z"></path><path class="st0" d="M208.18,243c.96-1.44,2.23-2.22,3.74-2.72,10.06-3.34,18.8-8.79,26.29-16.32,7.29-7.33,14.19-15.02,20.93-22.84,6.69-7.76,13.26-15.61,19.91-23.4,2.65-3.1,5.38-6.13,8.05-9.21,2.63-3.02,5.54-5.73,8.69-8.19,2.71-2.12,5.43-4.23,8.15-6.34.94-.73,1.89-1.42,3.35-1.15.55,1.25.2,2.41-.65,3.4-1.3,1.51-2.58,3.07-4.08,4.36-9.03,7.78-16.77,16.77-24.49,25.8-12.3,14.4-24.72,28.69-37.7,42.5-4.52,4.81-9.64,8.76-15.63,11.55-3.96,1.84-8.1,3.12-12.37,4.02-1.71.36-3.01.05-4.19-1.47Z"></path><path class="st0" d="M225.2,261.4c-.29,1.38-1.08,2.02-1.99,2.44-3.6,1.69-7.23,3.33-10.86,4.96-1.47.66-3,.62-4.51.12-2.23-.74-4.46-1.5-6.7-2.24-.86-.29-1.72-.57-2.59-.83-1.31-.39-2.49-.13-3.57.71-.85.67-1.7,1.36-2.63,1.92-3.19,1.95-6.61,2.52-10.15,1.22-3.23-1.18-6.38-2.57-9.56-3.89-.41-.17-.82-.41-1.14-.71-.86-.81-.85-2.07-.01-2.86,2.17-2.05,4.34-4.1,6.52-6.14,1.87-1.75,3.93-3.18,6.41-3.97,1.83-.58,3.47-.59,5.14.59,1.85,1.3,3.82,2.4,5.35,4.13.65.73,1.5,1.32,2.33,1.85,1.53.97,2.54.85,3.9-.42.66-.61,1.21-1.35,1.84-1.99.88-.9,1.73-1.87,2.72-2.65,2.8-2.22,5.3-2.18,8.16,0,.14.11.3.21.42.34,1.9,2.03,4.31,3.26,6.78,4.44,1.53.73,3.15,1.41,4.13,2.98Z"></path><path class="st0" d="M28.62,180.61c.41-.38.74-.83,1.19-1.08,3.57-1.97,7.29-3.6,11.02-5.16,2.8,1.37,5.42,2.72,7.7,4.75,3.17,2.83,4.89,2.92,8.58.84,1.5-.85,2.96-1.73,4.63-2.24,2.78-.85,5.38-.53,7.82.99,1,.62,1.92,1.36,2.85,2.09,1.79,1.39,3.75,2.11,6.06,1.85,1.57-.18,1.58-.11,3.51.76-.27,1.56-.89,2.83-2.56,3.37-4.32,1.38-8.67,2.6-13.1,3.58-2.76.61-5.2.06-7.53-1.37-1-.62-1.99-1.26-3.01-1.86-1.43-.84-2.92-.91-4.43-.26-.91.39-1.81.82-2.69,1.3-2.73,1.47-5.64,2.47-8.59,3.35-2.75.82-3.42.47-4.99-1.82-2.05-2.98-4.19-5.9-6.45-9.08Z"></path><path class="st0" d="M400.91,121.39c.1,1.71-.2,3.14-1.63,4.1-2.48,1.66-4.93,3.38-7.51,4.89-2.84,1.67-5.95,2.61-9.26,2.92-1.21.11-2.33.03-3.43-.52-1.05-.53-2.15-.96-3.22-1.44-1.66-.74-3.37-1.31-5.18-1.59-.8-.12-1.6-.31-2.38-.55-1.21-.38-1.56-1.2-1.04-2.29.12-.24.23-.5.41-.7,3.14-3.59,6.68-6.62,11.38-8.03,2.78-.84,5.34-.63,7.77,1.05,1.27.87,2.61,1.64,3.92,2.45,1.3.8,2.68.98,4.17.64,1.59-.36,3.2-.62,4.81-.89.34-.06.7-.02,1.18-.02Z"></path><path class="st0" d="M104.48,27.3v29.42h-5.59l-14.67-17.86v17.86h-6.72v-29.42h5.63l14.63,17.86v-17.86h6.72Z"></path><path class="st0" d="M127.67,50.41h-13.66l-2.61,6.3h-6.97l13.11-29.42h6.72l13.15,29.42h-7.14l-2.61-6.3ZM125.53,45.25l-4.66-11.26-4.66,11.26h9.33Z"></path><path class="st0" d="M140.26,56.28c-2.17-.63-3.91-1.45-5.23-2.46l2.31-5.13c1.26.92,2.76,1.67,4.5,2.23,1.74.56,3.47.84,5.21.84,1.93,0,3.36-.29,4.29-.86.93-.57,1.39-1.34,1.39-2.29,0-.7-.27-1.28-.82-1.74-.55-.46-1.25-.83-2.1-1.11s-2.01-.59-3.47-.92c-2.24-.53-4.08-1.06-5.5-1.6-1.43-.53-2.66-1.39-3.68-2.56-1.02-1.18-1.53-2.75-1.53-4.71,0-1.71.46-3.26,1.39-4.64.93-1.39,2.32-2.49,4.18-3.3s4.14-1.22,6.83-1.22c1.88,0,3.71.22,5.51.67,1.79.45,3.36,1.09,4.71,1.93l-2.1,5.17c-2.72-1.54-5.44-2.31-8.15-2.31-1.91,0-3.31.31-4.22.92-.91.62-1.37,1.43-1.37,2.44s.52,1.76,1.58,2.25c1.05.49,2.65.97,4.81,1.45,2.24.53,4.08,1.07,5.5,1.6,1.43.53,2.66,1.37,3.68,2.52s1.53,2.7,1.53,4.66c0,1.68-.47,3.21-1.41,4.6-.94,1.39-2.35,2.49-4.22,3.3-1.88.81-4.16,1.22-6.85,1.22-2.32,0-4.57-.32-6.75-.95Z"></path><path class="st0" d="M183.78,51.25v5.46h-22.78v-29.42h22.23v5.46h-15.47v6.39h13.66v5.3h-13.66v6.81h16.01Z"></path><path class="st0" d="M208.82,51.25v5.46h-22.78v-29.42h22.23v5.46h-15.47v6.39h13.66v5.3h-13.66v6.81h16.01Z"></path><path class="st0" d="M238.07,27.3v29.42h-6.81v-12.06h-13.36v12.06h-6.81v-29.42h6.81v11.6h13.36v-11.6h6.81Z"></path><path class="st0" d="M261.27,50.41h-13.66l-2.61,6.3h-6.97l13.11-29.42h6.72l13.15,29.42h-7.14l-2.61-6.3ZM259.12,45.25l-4.66-11.26-4.66,11.26h9.33Z"></path><path class="st0" d="M84.31,71.3v7.77h13.61v5.46h-13.61v10.72h-6.81v-29.42h22.23v5.46h-15.42Z"></path><path class="st0" d="M106.89,93.79c-2.45-1.32-4.37-3.13-5.76-5.44-1.38-2.31-2.08-4.91-2.08-7.8s.69-5.48,2.08-7.8c1.39-2.31,3.31-4.13,5.76-5.44,2.45-1.32,5.2-1.98,8.26-1.98s5.8.66,8.24,1.98c2.44,1.32,4.36,3.13,5.76,5.44,1.4,2.31,2.1,4.91,2.1,7.8s-.7,5.48-2.1,7.8c-1.4,2.31-3.32,4.13-5.76,5.44-2.44,1.32-5.18,1.98-8.24,1.98s-5.81-.66-8.26-1.98ZM119.86,88.76c1.4-.8,2.5-1.91,3.3-3.34.8-1.43,1.2-3.05,1.2-4.87s-.4-3.45-1.2-4.88c-.8-1.43-1.9-2.54-3.3-3.34-1.4-.8-2.97-1.2-4.7-1.2s-3.31.4-4.71,1.2c-1.4.8-2.5,1.91-3.3,3.34-.8,1.43-1.2,3.05-1.2,4.88s.4,3.45,1.2,4.87c.8,1.43,1.9,2.54,3.3,3.34,1.4.8,2.97,1.2,4.71,1.2s3.31-.4,4.7-1.2Z"></path><path class="st0" d="M136.48,92.27c-2.34-2.32-3.51-5.64-3.51-9.96v-16.47h6.81v16.22c0,5.27,2.19,7.9,6.56,7.9,2.13,0,3.75-.64,4.88-1.91,1.12-1.28,1.68-3.27,1.68-5.99v-16.22h6.72v16.47c0,4.31-1.17,7.63-3.51,9.96-2.34,2.33-5.61,3.49-9.81,3.49s-7.47-1.16-9.81-3.49Z"></path><path class="st0" d="M190.16,65.84v29.42h-5.59l-14.67-17.86v17.86h-6.72v-29.42h5.63l14.63,17.86v-17.86h6.72Z"></path><path class="st0" d="M193.99,65.84h13.36c3.19,0,6.02.61,8.47,1.83,2.45,1.22,4.36,2.94,5.72,5.15,1.36,2.21,2.04,4.79,2.04,7.73s-.68,5.52-2.04,7.73c-1.36,2.21-3.27,3.93-5.72,5.15-2.45,1.22-5.27,1.83-8.47,1.83h-13.36v-29.42ZM207.01,89.67c2.94,0,5.29-.82,7.04-2.46,1.75-1.64,2.63-3.86,2.63-6.66s-.88-5.02-2.63-6.66c-1.75-1.64-4.1-2.46-7.04-2.46h-6.22v18.24h6.22Z"></path><path class="st0" d="M244.5,88.95h-13.66l-2.61,6.3h-6.97l13.11-29.42h6.72l13.15,29.42h-7.14l-2.61-6.3ZM242.36,83.78l-4.66-11.26-4.66,11.26h9.33Z"></path><path class="st0" d="M258.79,71.39h-9.41v-5.55h25.63v5.55h-9.41v23.87h-6.81v-23.87Z"></path><path class="st0" d="M275.52,65.84h6.81v29.42h-6.81v-29.42Z"></path><path class="st0" d="M292.14,93.79c-2.45-1.32-4.37-3.13-5.76-5.44-1.38-2.31-2.08-4.91-2.08-7.8s.69-5.48,2.08-7.8c1.39-2.31,3.31-4.13,5.76-5.44,2.45-1.32,5.2-1.98,8.26-1.98s5.8.66,8.24,1.98c2.44,1.32,4.36,3.13,5.76,5.44,1.4,2.31,2.1,4.91,2.1,7.8s-.7,5.48-2.1,7.8c-1.4,2.31-3.32,4.13-5.76,5.44-2.44,1.32-5.18,1.98-8.24,1.98s-5.81-.66-8.26-1.98ZM305.1,88.76c1.4-.8,2.5-1.91,3.3-3.34.8-1.43,1.2-3.05,1.2-4.87s-.4-3.45-1.2-4.88c-.8-1.43-1.9-2.54-3.3-3.34-1.4-.8-2.97-1.2-4.7-1.2s-3.31.4-4.71,1.2c-1.4.8-2.5,1.91-3.3,3.34-.8,1.43-1.2,3.05-1.2,4.88s.4,3.45,1.2,4.87c.8,1.43,1.9,2.54,3.3,3.34,1.4.8,2.97,1.2,4.71,1.2s3.31-.4,4.7-1.2Z"></path><path class="st0" d="M345.44,65.84v29.42h-5.59l-14.67-17.86v17.86h-6.72v-29.42h5.63l14.63,17.86v-17.86h6.72Z"></path><path class="st0" d="M88.76,120.81v1.94h-11.34v-15.62h11.03v1.94h-8.79v4.8h7.84v1.9h-7.84v5.04h9.11Z"></path><path class="st0" d="M90.4,120.96l.82-1.74c1.16,1.05,3.15,1.81,5.16,1.81,2.7,0,3.86-1.05,3.86-2.41,0-3.82-9.46-1.41-9.46-7.21,0-2.41,1.87-4.46,5.98-4.46,1.83,0,3.73.49,5.02,1.38l-.74,1.78c-1.36-.87-2.9-1.27-4.28-1.27-2.65,0-3.79,1.12-3.79,2.48,0,3.82,9.46,1.43,9.46,7.16,0,2.39-1.92,4.44-6.05,4.44-2.39,0-4.73-.8-5.98-1.96Z"></path><path class="st0" d="M108.01,109.07h-5.36v-1.94h12.92v1.94h-5.36v13.68h-2.21v-13.68Z"></path><path class="st0" d="M115.43,121.34c0-.89.69-1.52,1.52-1.52s1.47.63,1.47,1.52-.67,1.54-1.47,1.54-1.52-.65-1.52-1.54Z"></path><path class="st0" d="M141.86,120.81v1.94h-11.23v-1.52l6.36-6.14c1.65-1.61,1.96-2.59,1.96-3.57,0-1.61-1.14-2.59-3.32-2.59-1.67,0-3.04.54-4,1.7l-1.52-1.32c1.21-1.5,3.28-2.37,5.71-2.37,3.26,0,5.36,1.67,5.36,4.35,0,1.52-.45,2.88-2.57,4.91l-4.78,4.6h8.01Z"></path><path class="st0" d="M143.06,114.94c0-5.09,2.72-7.99,6.38-7.99s6.36,2.9,6.36,7.99-2.72,7.99-6.36,7.99-6.38-2.9-6.38-7.99ZM153.58,114.94c0-4-1.7-6-4.13-6s-4.15,2.01-4.15,6,1.7,6,4.15,6,4.13-2.01,4.13-6Z"></path><path class="st0" d="M168.31,120.81v1.94h-11.23v-1.52l6.36-6.14c1.65-1.61,1.96-2.59,1.96-3.57,0-1.61-1.14-2.59-3.32-2.59-1.67,0-3.04.54-4,1.7l-1.52-1.32c1.21-1.5,3.28-2.37,5.71-2.37,3.26,0,5.36,1.67,5.36,4.35,0,1.52-.45,2.88-2.57,4.91l-4.78,4.6h8.01Z"></path><path class="st0" d="M180.28,118.15c0,2.63-1.94,4.78-5.92,4.78-2.23,0-4.42-.71-5.74-1.9l1.03-1.76c1.05.98,2.79,1.67,4.71,1.67,2.34,0,3.68-1.07,3.68-2.77s-1.18-2.72-3.86-2.72h-1.25v-1.56l3.93-4.82h-7.52v-1.94h10.31v1.52l-4.09,5.04c3.12.29,4.71,2.05,4.71,4.46Z"></path></svg>