<svg class="w-full h-full object-contain" fill="none" xmlns="http://www.w3.org/2000/svg" viewBox="0.1 0.03 167.85 45.65">                         <g clip-path="url(#clip0_2256_3211)">                         <path d="M29.624 18.886C29.8224 19.599 29.983 20.322 30.105 21.052C30.2013 21.7434 30.2547 22.4401 30.265 23.138V23.218C30.2656 25.0819 29.8974 26.9274 29.1815 28.6483C28.4656 30.3692 27.4163 31.9315 26.094 33.245C24.8588 34.5098 23.3864 35.5186 21.761 36.214C21.4542 35.9277 21.057 35.7575 20.638 35.733H18.632C21.0831 35.2257 23.3382 34.0288 25.132 32.283C26.6088 30.8112 27.6858 28.9871 28.261 26.983L28.742 25.057C28.849 23.7756 28.849 22.4875 28.742 21.206C28.5916 20.5885 28.4312 19.9734 28.261 19.361L29.624 18.886ZM10.283 36.216C8.65763 35.5206 7.18524 34.5118 5.95 33.247C4.62816 31.9329 3.57944 30.3702 2.86427 28.6489C2.1491 26.9277 1.78162 25.0819 1.783 23.218V23.138C1.79349 22.3866 1.84691 21.6364 1.943 20.891C2.08296 20.1313 2.27066 19.3811 2.505 18.645L3.869 19.045C3.63298 19.7207 3.47168 20.4202 3.388 21.131C3.26342 21.7936 3.18291 22.4638 3.147 23.137C3.18307 23.8368 3.26357 24.5335 3.388 25.223C3.47193 25.9077 3.63329 26.5807 3.869 27.229C4.50177 29.1175 5.54277 30.8434 6.918 32.284C8.71175 34.0298 10.9669 35.2267 13.418 35.734H11.411C10.9865 35.7413 10.5817 35.9142 10.283 36.216Z" fill="#005180"/>                         <path d="M5.153 21.293C3.86967 20.6362 2.74648 19.7052 1.863 18.566C0.576918 16.8177 -0.0410324 14.6669 0.120924 12.5026C0.28288 10.3383 1.21405 8.30342 2.746 6.76602C3.37013 6.14577 4.07118 5.60806 4.832 5.16602C5.13825 5.55277 5.48825 5.90276 5.875 6.20902C5.08708 6.57637 4.37849 7.09406 3.789 7.73302C3.05911 8.43882 2.4828 9.28771 2.09615 10.2265C1.70951 11.1654 1.52085 12.1739 1.542 13.189C1.55265 14.8251 2.05584 16.42 2.986 17.766C3.98701 19.0552 5.35941 20.0063 6.918 20.491L7.56 20.732L8.76 21.053C8.49761 21.8835 8.36274 22.749 8.36 23.62C8.34677 24.6222 8.53937 25.6164 8.92587 26.5411C9.31238 27.4658 9.88456 28.3013 10.607 28.996C11.5132 29.9759 12.6836 30.6725 13.977 31.002V32.446C12.3401 32.054 10.8417 31.2217 9.644 30.039V29.959C8.79359 29.139 8.12011 28.1535 7.66504 27.0633C7.20997 25.9731 6.98296 24.8013 6.998 23.62C6.9828 23.0854 7.00955 22.5504 7.078 22.02C6.41597 21.8355 5.77174 21.5922 5.153 21.293ZM18.071 31.001C19.3644 30.6715 20.5348 29.9749 21.441 28.995C22.87 27.5697 23.6777 25.6373 23.688 23.619C23.6853 22.748 23.5504 21.8825 23.288 21.052L24.411 20.731L25.053 20.49C26.6432 20.0277 28.0465 19.0742 29.062 17.766C29.9914 16.4212 30.4945 14.8277 30.506 13.193C30.5271 12.1779 30.3385 11.1694 29.9518 10.2305C29.5652 9.29171 28.9889 8.44282 28.259 7.73702C27.6695 7.09806 26.9609 6.58037 26.173 6.21302C26.5603 5.90557 26.9107 5.55422 27.217 5.16602C27.9778 5.60806 28.6789 6.14577 29.303 6.76602C30.8349 8.30342 31.7661 10.3383 31.9281 12.5026C32.09 14.6669 31.4721 16.8177 30.186 18.566C29.3026 19.7056 28.1794 20.6369 26.896 21.294C26.2768 21.5915 25.6322 21.8331 24.97 22.016C25.0385 22.5464 25.0652 23.0814 25.05 23.616C25.0647 24.7982 24.8369 25.9709 24.3808 27.0617C23.9247 28.1524 23.2499 29.1382 22.398 29.958V30.038C21.1885 31.2048 19.6947 32.0346 18.065 32.445L18.071 31.001ZM11.411 35.093H20.638C20.9493 35.0839 21.2593 35.1373 21.5496 35.2502C21.8399 35.363 22.1046 35.5329 22.3281 35.7499C22.5515 35.9669 22.7291 36.2265 22.8504 36.5134C22.9717 36.8003 23.0342 37.1086 23.0342 37.42C23.0342 37.7315 22.9717 38.0398 22.8504 38.3266C22.7291 38.6135 22.5515 38.8731 22.3281 39.0901C22.1046 39.3071 21.8399 39.477 21.5496 39.5899C21.2593 39.7027 20.9493 39.7561 20.638 39.747H11.411C10.7879 39.7563 10.1849 39.5266 9.726 39.105C9.31245 38.6412 9.08392 38.0414 9.08392 37.42C9.08392 36.7986 9.31245 36.1989 9.726 35.735C10.1849 35.3135 10.7879 35.0837 11.411 35.093ZM20.638 36.457H11.411C11.2213 36.4471 11.0332 36.4968 10.8731 36.5991C10.7129 36.7014 10.5888 36.8512 10.5181 37.0275C10.4473 37.2039 10.4335 37.3979 10.4785 37.5825C10.5235 37.7671 10.625 37.933 10.769 38.057C10.9353 38.2406 11.1644 38.3551 11.411 38.378H20.638C20.8846 38.3551 21.1137 38.2406 21.28 38.057C21.3979 37.9228 21.4763 37.7586 21.5065 37.5825C21.5366 37.4064 21.5174 37.2254 21.4509 37.0597C21.3843 36.8939 21.2731 36.7498 21.1296 36.6434C20.9861 36.537 20.816 36.4725 20.638 36.457ZM19.275 42.394C19.247 43.2608 18.9047 44.0879 18.312 44.721C18.0073 45.0277 17.6446 45.2707 17.2451 45.4361C16.8457 45.6014 16.4173 45.6857 15.985 45.684C15.1385 45.6711 14.3312 45.3251 13.738 44.721C13.1453 44.0879 12.803 43.2608 12.775 42.394H14.219C14.2053 42.6297 14.2409 42.8657 14.3238 43.0869C14.4066 43.308 14.5348 43.5093 14.7 43.678C14.8573 43.863 15.0547 44.0097 15.2772 44.1071C15.4997 44.2045 15.7414 44.2499 15.984 44.24C16.2393 44.2584 16.4955 44.2171 16.7322 44.1196C16.9689 44.0221 17.1797 43.8709 17.348 43.678C17.5132 43.5093 17.6414 43.308 17.7242 43.0869C17.807 42.8657 17.8427 42.6297 17.829 42.394H19.275Z" fill="#005180"/>                         <path d="M11.411 38.383H20.638C20.9484 38.3645 21.2592 38.412 21.5499 38.5224C21.8406 38.6328 22.1046 38.8036 22.3245 39.0235C22.5444 39.2434 22.7152 39.5074 22.8256 39.7981C22.936 40.0888 22.9835 40.3996 22.965 40.71C22.9743 41.3331 22.7446 41.9361 22.323 42.395C21.864 42.8267 21.2672 43.0824 20.638 43.117H11.411C10.7782 43.0984 10.176 42.8403 9.726 42.395C9.30444 41.9361 9.0747 41.3331 9.084 40.71C9.08918 40.0896 9.317 39.4916 9.726 39.025C10.1849 38.6034 10.7879 38.3737 11.411 38.383ZM20.638 39.747H11.411C11.1644 39.7699 10.9353 39.8845 10.769 40.068C10.6647 40.1383 10.5804 40.2343 10.5241 40.3468C10.4679 40.4593 10.4417 40.5844 10.448 40.71C10.4485 40.846 10.4772 40.9805 10.5325 41.1048C10.5878 41.2291 10.6683 41.3405 10.769 41.432C10.9434 41.5929 11.1738 41.6794 11.411 41.673H20.638C20.8752 41.6794 21.1056 41.5929 21.28 41.432C21.3807 41.3405 21.4612 41.2291 21.5165 41.1048C21.5718 40.9805 21.6005 40.846 21.601 40.71C21.6073 40.5844 21.5811 40.4593 21.5249 40.3468C21.4686 40.2343 21.3843 40.1383 21.28 40.068C21.1136 39.8845 20.8846 39.77 20.638 39.747ZM10.849 7.252C12.4036 7.26153 13.8959 7.86423 15.021 8.937C16.1071 10.0535 16.7121 11.5514 16.706 13.109C16.7123 13.8837 16.5657 14.652 16.2746 15.37C15.9835 16.0879 15.5536 16.7414 15.0095 17.2929C14.4654 17.8444 13.8179 18.2832 13.1039 18.584C12.39 18.8848 11.6237 19.0418 10.849 19.046C10.0579 19.0533 9.27354 18.9007 8.54288 18.5974C7.81223 18.2941 7.15036 17.8464 6.597 17.281C6.05282 16.7326 5.6235 16.0811 5.33417 15.3648C5.04484 14.6484 4.90132 13.8815 4.912 13.109C4.90593 11.5514 5.5109 10.0535 6.597 8.937C7.74473 7.84915 9.26766 7.24564 10.849 7.252ZM13.978 9.98C13.5815 9.54569 13.0979 9.19977 12.5588 8.96476C12.0197 8.72975 11.4371 8.61092 10.849 8.616C10.248 8.60268 9.65097 8.71742 9.09768 8.9526C8.5444 9.18777 8.0475 9.538 7.64 9.98C7.00685 10.6054 6.57559 11.4062 6.40182 12.279C6.22805 13.1519 6.31974 14.0568 6.66508 14.877C7.01041 15.6972 7.59355 16.3952 8.33929 16.8809C9.08503 17.3666 9.95917 17.6178 10.849 17.602C12.0208 17.6048 13.1459 17.1431 13.978 16.318C14.4089 15.9103 14.7521 15.4189 14.9866 14.8741C15.2212 14.3292 15.3421 13.7422 15.3421 13.149C15.3421 12.5558 15.2212 11.9688 14.9866 11.4239C14.7521 10.8791 14.4089 10.3877 13.978 9.98Z" fill="#005180"/>                         <path d="M21.199 7.25202C21.9715 7.24134 22.7384 7.38486 23.4548 7.67419C24.1711 7.96351 24.8226 8.39284 25.371 8.93702C25.9351 9.47458 26.3828 10.1222 26.6864 10.8399C26.99 11.5575 27.143 12.3298 27.136 13.109C27.1123 14.6762 26.4791 16.1726 25.3708 17.2809C24.2625 18.3892 22.7662 19.0223 21.199 19.046C20.4243 19.0418 19.658 18.8848 18.9441 18.584C18.2301 18.2832 17.5826 17.8444 17.0385 17.2929C16.4944 16.7414 16.0645 16.0879 15.7734 15.37C15.4823 14.6521 15.3357 13.8837 15.342 13.109C15.3359 11.5514 15.9409 10.0535 17.027 8.93702C18.1521 7.86425 19.6444 7.26154 21.199 7.25202ZM24.408 9.98002C24.0005 9.53801 23.5036 9.18779 22.9503 8.95262C22.397 8.71744 21.8 8.6027 21.199 8.61602C20.6109 8.61093 20.0283 8.72976 19.4892 8.96478C18.9501 9.19979 18.4665 9.54571 18.07 9.98002C17.6391 10.3878 17.2959 10.8791 17.0614 11.424C16.8268 11.9688 16.7059 12.5558 16.7059 13.149C16.7059 13.7422 16.8268 14.3292 17.0614 14.8741C17.2959 15.419 17.6391 15.9103 18.07 16.318C18.9021 17.1431 20.0272 17.6048 21.199 17.602C21.7923 17.6112 22.3814 17.5024 22.9323 17.2819C23.4832 17.0615 23.9848 16.7339 24.408 16.318C24.8387 15.9102 25.1818 15.4189 25.4163 14.874C25.6508 14.3291 25.7717 13.7422 25.7717 13.149C25.7717 12.5559 25.6508 11.9689 25.4163 11.424C25.1818 10.8792 24.8387 10.3878 24.408 9.98002Z" fill="#005180"/>                         <path d="M14.62 17.361C14.6819 17.8697 14.8455 18.3608 15.101 18.805C15.422 19.286 15.743 19.768 15.984 20.169C16.305 19.769 16.626 19.286 16.947 18.805C17.2025 18.3608 17.3661 17.8697 17.428 17.361L18.872 17.441C18.7278 18.1661 18.4849 18.8679 18.15 19.527C17.6943 20.3284 17.1582 21.0812 16.55 21.774L15.988 22.416L15.507 21.774C14.8988 21.0812 14.3627 20.3284 13.907 19.527C13.5339 18.884 13.2859 18.1762 13.176 17.441L14.62 17.361ZM3.063 0.431006L15.984 5.00501L30.185 0.0310059L29.863 1.23101C29.141 4.28001 27.777 6.04501 26.172 7.00801C24.6033 7.92275 22.8476 8.4698 21.037 8.60801C19.8617 8.69993 18.7423 9.14783 17.828 9.89201C17.4266 10.304 17.1187 10.7976 16.9251 11.3393C16.7315 11.8809 16.6568 12.4579 16.706 13.031H15.342C15.378 12.4539 15.2895 11.8758 15.0825 11.3359C14.8754 10.796 14.5547 10.307 14.142 9.90201C13.2665 9.1449 12.1679 8.69409 11.013 8.61801C9.20237 8.4798 7.44667 7.93275 5.878 7.01801C4.278 6.05501 2.909 4.29001 2.187 1.24101L1.863 0.0310059L3.063 0.431006ZM15.824 6.45001L3.949 2.19701C4.40451 3.6837 5.33463 4.98017 6.597 5.88801C8.006 6.66507 9.56554 7.13024 11.17 7.25201C12.6097 7.38502 13.9776 7.94181 15.101 8.85201C15.462 9.16878 15.7613 9.5495 15.984 9.97501C16.2364 9.54691 16.5624 9.16675 16.947 8.85201C18.0704 7.94181 19.4383 7.38502 20.878 7.25201C22.4825 7.13024 24.042 6.66507 25.451 5.88801C26.7134 4.98017 27.6435 3.6837 28.099 2.19701L16.225 6.45001H15.824Z" fill="#005180"/>                         <path fill-rule="evenodd" clip-rule="evenodd" d="M21.2 10.782C21.6233 10.7648 22.0418 10.8767 22.4 11.103C22.32 11.103 22.32 11.023 22.24 11.023C21.9987 11.0431 21.7738 11.1533 21.6102 11.3318C21.4466 11.5103 21.3562 11.7438 21.357 11.986C21.3588 12.2196 21.4524 12.4431 21.6176 12.6083C21.7828 12.7735 22.0064 12.8671 22.24 12.869C22.3616 12.876 22.4834 12.8585 22.5981 12.8176C22.7129 12.7767 22.8183 12.7132 22.9081 12.6309C22.9979 12.5486 23.0702 12.4491 23.1209 12.3383C23.1715 12.2275 23.1995 12.1077 23.203 11.986C23.203 11.906 23.123 11.826 23.123 11.745C23.434 12.1316 23.6036 12.6128 23.604 13.109C23.604 13.7367 23.3546 14.3388 22.9107 14.7827C22.4668 15.2266 21.8648 15.476 21.237 15.476C20.6092 15.476 20.0072 15.2266 19.5633 14.7827C19.1194 14.3388 18.87 13.7367 18.87 13.109C18.8701 12.8031 18.9305 12.5004 19.0477 12.2179C19.1649 11.9354 19.3365 11.6788 19.5529 11.4627C19.7693 11.2467 20.0261 11.0753 20.3087 10.9585C20.5913 10.8417 20.8942 10.7817 21.2 10.782ZM10.849 10.782C11.2482 10.7643 11.6424 10.877 11.972 11.103C11.892 11.103 11.892 11.023 11.812 11.023C11.5707 11.0431 11.3458 11.1533 11.1822 11.3318C11.0186 11.5103 10.9282 11.7438 10.929 11.986C10.9308 12.2196 11.0244 12.4431 11.1896 12.6083C11.3548 12.7735 11.5784 12.8671 11.812 12.869C11.9336 12.876 12.0554 12.8585 12.1701 12.8176C12.2849 12.7767 12.3903 12.7132 12.4801 12.6309C12.5699 12.5486 12.6422 12.4491 12.6929 12.3383C12.7435 12.2275 12.7715 12.1077 12.775 11.986C12.7801 11.9424 12.7756 11.8982 12.7618 11.8566C12.7479 11.8149 12.7251 11.7768 12.695 11.745C13.006 12.1316 13.1756 12.6128 13.176 13.109C13.176 13.7367 12.9266 14.3388 12.4827 14.7827C12.0388 15.2266 11.4368 15.476 10.809 15.476C10.1812 15.476 9.57918 15.2266 9.13528 14.7827C8.69138 14.3388 8.442 13.7367 8.442 13.109C8.44455 12.7973 8.50915 12.4893 8.63202 12.2029C8.75488 11.9165 8.93356 11.6574 9.15762 11.4408C9.38168 11.2242 9.64664 11.0544 9.93704 10.9412C10.2274 10.8281 10.5375 10.774 10.849 10.782Z" fill="#005180"/>                         <path d="M12.614 31.964V35.414H13.978V31.964H12.614ZM18.07 31.964V35.414H19.434V31.964H18.07Z" fill="#005180"/>                         <path fill-rule="evenodd" clip-rule="evenodd" d="M101.753 19.046V27.874H103.679C106.407 27.874 108.333 26.274 108.333 23.461C108.333 20.648 106.407 19.048 103.679 19.048L101.753 19.046ZM103.919 15.034C105.033 15.0218 106.138 15.2308 107.171 15.6487C108.204 16.0666 109.144 16.6852 109.936 17.4687C110.728 18.2522 111.357 19.185 111.786 20.2132C112.215 21.2413 112.436 22.3443 112.436 23.4585C112.436 24.5726 112.215 25.6756 111.786 26.7037C111.357 27.7319 110.728 28.6647 109.936 29.4482C109.144 30.2317 108.204 30.8503 107.171 31.2682C106.138 31.6861 105.033 31.8951 103.919 31.883H99.667C99.4027 31.8855 99.1405 31.8352 98.8958 31.7351C98.6511 31.635 98.4289 31.4871 98.2421 31.3C98.0554 31.1128 97.9079 30.8903 97.8083 30.6455C97.7087 30.4006 97.6589 30.1383 97.662 29.874V17.121C97.6537 16.579 97.8598 16.0557 98.2355 15.665C98.6112 15.2742 99.1261 15.0478 99.668 15.035L103.919 15.034ZM124.058 20.974L127.508 15.919C127.744 15.5388 128.098 15.2467 128.517 15.0879C128.935 14.929 129.394 14.9121 129.823 15.0398C130.251 15.1675 130.626 15.4327 130.889 15.7945C131.153 16.1563 131.29 16.5947 131.279 17.042C131.297 17.4412 131.184 17.8354 130.958 18.165V18.245L126.144 24.985V29.959C126.12 30.4964 125.89 31.004 125.502 31.376C125.113 31.748 124.596 31.9556 124.058 31.9556C123.52 31.9556 123.003 31.748 122.614 31.376C122.226 31.004 121.996 30.4964 121.972 29.959V24.985L117.158 18.165C116.932 17.8354 116.819 17.4412 116.837 17.042C116.826 16.5947 116.963 16.1563 117.227 15.7945C117.49 15.4327 117.865 15.1675 118.293 15.0398C118.722 14.9121 119.181 14.929 119.599 15.0879C120.018 15.2467 120.372 15.5388 120.608 15.919L124.058 20.974ZM88.274 14.956C88.8242 14.9657 89.3491 15.1886 89.7382 15.5777C90.1273 15.9668 90.3502 16.4918 90.36 17.042V25.306C90.36 29.398 87.151 32.126 83.219 32.126C79.207 32.126 76.078 29.398 76.078 25.306V17.042C76.078 16.4993 76.2936 15.9789 76.6773 15.5952C77.061 15.2115 77.5814 14.996 78.124 14.996C78.6666 14.996 79.187 15.2115 79.5707 15.5952C79.9544 15.9789 80.17 16.4993 80.17 17.042V25.386C80.1673 25.7762 80.2463 26.1628 80.4018 26.5208C80.5574 26.8788 80.786 27.2003 81.0731 27.4647C81.3602 27.7291 81.6994 27.9305 82.069 28.0561C82.4385 28.1817 82.8302 28.2287 83.219 28.194C83.6034 28.2265 83.9904 28.1775 84.3546 28.0501C84.7187 27.9227 85.0519 27.7198 85.3322 27.4547C85.6125 27.1896 85.8336 26.8683 85.9811 26.5118C86.1286 26.1552 86.1991 25.7716 86.188 25.386V17.042C86.1973 16.4914 86.4199 15.966 86.8091 15.5764C87.1982 15.1869 87.7235 14.9637 88.274 14.954V14.956ZM65.327 19.048V29.96C65.3297 30.2241 65.2796 30.4862 65.1797 30.7308C65.0799 30.9754 64.9322 31.1976 64.7454 31.3844C64.5586 31.5712 64.3364 31.7188 64.0918 31.8187C63.8472 31.9186 63.5852 31.9686 63.321 31.966C62.779 31.9743 62.2557 31.7681 61.865 31.3924C61.4743 31.0167 61.2479 30.5018 61.235 29.96V19.046H58.106C57.574 19.046 57.0637 18.8346 56.6875 18.4584C56.3113 18.0822 56.1 17.572 56.1 17.04C56.1 16.5079 56.3113 15.9977 56.6875 15.6215C57.0637 15.2453 57.574 15.034 58.106 15.034H68.536C68.8002 15.0313 69.0622 15.0813 69.3068 15.1812C69.5514 15.2811 69.7736 15.4287 69.9604 15.6155C70.1472 15.8023 70.2949 16.0246 70.3948 16.2691C70.4946 16.5137 70.5447 16.7758 70.542 17.04C70.5337 17.5694 70.3198 18.0749 69.9453 18.4493C69.5709 18.8237 69.0655 19.0377 68.536 19.046L65.327 19.048ZM47.114 26.748C47.114 25.304 38.208 26.026 38.208 20.248C38.208 16.637 41.498 14.872 44.708 14.872C46.2641 14.8241 47.8153 15.0691 49.281 15.594C49.6569 15.7349 49.981 15.9869 50.2104 16.3165C50.4397 16.646 50.5634 17.0375 50.565 17.439C50.5766 17.6987 50.5354 17.9582 50.4438 18.2016C50.3521 18.4449 50.212 18.6671 50.0319 18.8547C49.8518 19.0423 49.6355 19.1913 49.396 19.2928C49.1566 19.3943 48.899 19.446 48.639 19.445C48.3914 19.4302 48.1477 19.3762 47.917 19.285C46.9604 18.963 45.9573 18.8005 44.948 18.804C44.148 18.804 42.3 18.964 42.3 20.088C42.3 22.174 51.206 20.65 51.206 26.908C51.206 30.438 47.836 32.123 44.706 32.123C42.8567 32.1145 41.0281 31.7325 39.33 31C38.9637 30.8455 38.6487 30.5902 38.4218 30.2637C38.1948 29.9373 38.0652 29.5531 38.048 29.156C38.0453 28.8918 38.0954 28.6297 38.1953 28.3851C38.2951 28.1406 38.4428 27.9183 38.6296 27.7315C38.8164 27.5447 39.0386 27.3971 39.2832 27.2972C39.5278 27.1973 39.7898 27.1473 40.054 27.15C40.327 27.1646 40.5964 27.2185 40.854 27.31C42.0089 27.8497 43.2703 28.1231 44.545 28.11C45.51 28.113 47.114 28.032 47.114 26.749V26.748Z" fill="#00486E"/>                         <path fill-rule="evenodd" clip-rule="evenodd" d="M160.645 20.972L164.095 15.917C164.286 15.6225 164.547 15.3802 164.855 15.212C165.163 15.0439 165.508 14.9552 165.859 14.954C166.133 14.9522 166.406 15.0048 166.659 15.109C166.913 15.2132 167.144 15.3668 167.338 15.5608C167.532 15.7549 167.686 15.9856 167.79 16.2395C167.894 16.4935 167.947 16.7656 167.945 17.04C167.935 17.4474 167.794 17.8408 167.545 18.163V18.243L162.731 24.983V29.954C162.718 30.4959 162.492 31.0108 162.101 31.3865C161.71 31.7622 161.187 31.9683 160.645 31.96C160.381 31.9627 160.119 31.9126 159.874 31.8128C159.63 31.7129 159.407 31.5652 159.221 31.3784C159.034 31.1916 158.886 30.9694 158.786 30.7248C158.686 30.4802 158.636 30.2182 158.639 29.954V24.98L153.745 18.16C153.555 17.8147 153.445 17.4308 153.424 17.037C153.413 16.5897 153.55 16.1514 153.814 15.7896C154.077 15.4278 154.452 15.1626 154.88 15.0349C155.309 14.9072 155.768 14.9241 156.186 15.0829C156.605 15.2418 156.959 15.5338 157.195 15.914L160.645 20.972ZM141.95 27.792H147.727C148.269 27.8049 148.784 28.0313 149.159 28.422C149.535 28.8127 149.741 29.336 149.733 29.878C149.736 30.1422 149.686 30.4042 149.586 30.6488C149.486 30.8934 149.338 31.1156 149.151 31.3024C148.965 31.4892 148.742 31.6369 148.498 31.7368C148.253 31.8366 147.991 31.8867 147.727 31.884H140.265C139.947 31.8899 139.632 31.8316 139.337 31.7127C139.042 31.5938 138.775 31.4167 138.55 31.192C138.325 30.9673 138.148 30.6997 138.029 30.405C137.91 30.1103 137.852 29.7947 137.858 29.477V17.04C137.85 16.498 138.056 15.9747 138.432 15.584C138.807 15.1933 139.322 14.9669 139.864 14.954C140.414 14.9638 140.939 15.1867 141.328 15.5758C141.717 15.9649 141.94 16.4898 141.95 17.04V27.792Z" fill="#3B9ED4"/>                         </g>                         <defs>                         <clipPath id="clip0_2256_3211">                         <rect width="168" height="46" fill="white"/>                         </clipPath>                         </defs>                       </svg>