<svg width="1064" height="308" viewBox="0 0 1064 308" fill="none" xmlns="http://www.w3.org/2000/svg">
<path d="M142.252 0L145.372 0.623913L162.841 8.73478L180.935 15.5978L203.396 23.0848L227.104 29.3239L253.309 34.9391L278.889 39.3065L285.128 40.5543L285.752 41.1783L287 61.7674V82.3565L285.752 106.065L283.257 128.526L280.137 146.62L273.898 171.576L268.283 187.798L261.42 203.396L254.557 216.498L247.07 228.352L238.959 238.959L231.472 247.693L222.737 257.052L218.37 261.42L213.378 265.787L205.267 272.65L193.413 281.385L181.559 288.872L170.328 295.111L160.97 300.102L144.124 307.589L136.013 304.47L115.424 294.487L101.698 286.376L91.7152 279.513L84.2283 273.898L74.2457 265.787L64.887 257.052L56.1522 248.317L50.537 241.454L42.4261 231.472L36.187 222.113L29.9478 211.507L24.9565 202.148L18.0935 185.926L11.2304 165.337L6.23913 144.748L2.49565 121.039L0.623913 100.45L0 89.2196V62.3913L1.24783 41.8022L3.11957 39.9304L33.6913 34.9391L56.7761 29.9478L74.2457 25.5804L96.7065 18.7174L114.176 12.4783L130.398 5.61522L142.252 0Z" fill="#284659"/>
<path d="M134.142 24.9565H135.39V195.909H134.142L129.774 190.917L122.287 184.678L114.177 179.687L102.322 174.072L91.0918 170.952L82.9809 169.704L70.5027 169.08L62.3918 169.704L63.6396 175.32L68.007 185.926L74.2461 197.78L81.7331 208.387L86.7244 214.626L93.5874 222.113L101.698 230.224L108.561 235.839L120.416 244.574L133.518 252.685L143.5 258.3L153.483 253.309L169.705 243.326L179.687 235.839L186.55 230.224L194.037 223.361L202.148 215.25L207.764 208.387L215.874 197.157L222.114 185.926L228.353 172.2L233.968 154.73L237.711 138.509L240.207 121.039L241.455 105.441L242.079 77.9892L233.968 77.3652L215.874 73.6218L199.653 69.2544L181.559 63.0152L163.466 54.9044L152.235 48.6652L151.611 48.0413V25.5805L157.227 27.4522L173.448 33.6913L192.166 39.9305L214.627 46.1696L236.464 51.1609L267.659 56.7761V88.5957L265.787 113.552L263.292 132.27L259.548 150.987L254.557 169.08L247.694 187.174L240.207 202.772L233.344 214.002L225.857 224.609L218.994 232.72L213.379 238.959L202.772 249.565L195.909 255.18L185.303 263.291L175.944 269.53L166.585 275.146L149.74 283.88L144.124 286.376L138.509 284.504L124.783 277.641L114.177 271.402L102.946 263.915L95.4592 258.3L85.4766 250.189L77.3657 242.702L69.8788 235.215L64.2635 228.352L57.4005 219.617L49.9135 207.763L42.4266 193.413L36.1874 178.439L30.5722 161.594L26.2048 144.124L22.4614 122.287L19.9657 97.9544L19.3418 85.4761V56.7761L47.4179 51.7848L69.8788 46.7935L92.3396 40.5544L117.92 31.8196L132.894 25.5805L134.142 24.9565Z" fill="#FAF5F0"/>
<path d="M126.655 84.2283H134.765L135.389 84.8522V195.909H134.141L129.774 190.917L122.287 184.678L114.176 179.687L102.322 174.072L91.0915 170.952L82.9806 169.704L70.5024 169.08H63.0154L62.3915 168.457L61.7676 164.089V150.987L63.6393 139.133L67.3828 127.902L72.998 117.296L79.2371 109.185L87.9719 100.45L97.9545 93.587L108.561 88.5957L119.168 85.4761L126.655 84.2283Z" fill="#F2A823"/>
<path d="M49.9125 79.8608L54.2799 80.4848L59.2712 85.4761L64.2625 89.8434L72.9973 97.9543V102.322L71.1256 104.193L67.3821 104.817L62.3908 100.45L54.2799 92.963L48.0408 87.3478L46.793 83.6043L48.6647 80.4848L49.9125 79.8608Z" fill="#F2A822"/>
<path d="M43.6743 159.098L49.9134 159.722L53.0329 161.593L53.6569 165.961L51.1612 168.456H46.7938L42.4264 167.209L40.5547 164.713L41.1786 160.97L43.6743 159.098Z" fill="#F2A822"/>
<path d="M87.9722 58.6478L92.3396 59.2717L96.0831 66.7587L101.074 79.8609L100.45 82.9804L98.5787 84.8522H94.2113L92.3396 82.9804L85.4766 65.5109V60.5196L87.9722 58.6478Z" fill="#F2A822"/>
<path d="M35.5631 120.415L41.8023 121.039L56.1523 126.03L58.024 127.902V132.27L56.1523 134.141H51.7849L34.9392 128.526L33.6914 126.654V122.287L35.5631 120.415Z" fill="#F2A822"/>
<path d="M982 34.2946H1026L1039 37.2946L1048 42.2946L1055 48.2946L1061 58.2946L1064 68.2946V87.2946L1060 98.2946L1054 107.295L1046 114.295L1036 119.295L1022 122.295H982V34.2946Z" fill="#284659"/>
<path d="M496 34.2946H514L528 52.2946L554 86.2946L555 34.2946H574V122.295H557L545 106.295L531 88.2946L516 68.2946L515 67.2946V122.295H496V34.2946Z" fill="#284659"/>
<path d="M678 34.2946H697V69.2946H734L733 34.2946H753V122.295H733L734 86.2946H697V122.295H678V34.2946Z" fill="#284659"/>
<path d="M818 34.2946H884V51.2946H837L838 69.2946H877V86.2946H837V105.295H885V122.295H818V34.2946Z" fill="#284659"/>
<path d="M399 34.2946H418L419 90.2946L422 97.2946L427 102.295L431 104.295H444L450 101.295L455 93.2946L456 34.2946H476L475 96.2946L471 107.295L464 115.295L457 120.295L447 123.295H427L416 119.295L408 113.295L402 104.295L399 94.2946V34.2946Z" fill="#284659"/>
<path d="M620 32.2946H630L641 34.2946L651 38.2946L658 43.2946L656 47.2946L649 58.2946L644 56.2946L633 51.2946L622 50.2946L616 53.2946L614 59.2946L618 64.2946L647 74.2946L655 80.2946L659 86.2946L660 89.2946V102.295L656 112.295L648 119.295L637 123.295H618L605 119.295L594 113.295L591 109.295L601 96.2946H604L609 100.295L617 104.295L621 105.295H635L640 100.295V95.2946L635 91.2946L620 86.2946L606 81.2946L599 76.2946L594 66.2946V54.2946L598 44.2946L607 36.2946L620 32.2946Z" fill="#284659"/>
<path d="M343 32.2946H353L369 36.2946L380 43.2946L378 48.2946L371 58.2946L366 56.2946L356 51.2946L345 50.2946L338 53.2946L337 60.2946L341 64.2946L367 73.2946L377 79.2946L382 87.2946L383 91.2946V101.295L380 110.295L375 116.295L367 121.295L360 123.295H341L327 119.295L314 111.295L315 107.295L324 95.2946L328 97.2946L337 103.295L343 105.295H357L362 102.295L363 96.2946L358 91.2946L331 82.2946L323 77.2946L318 70.2946L316 63.2946L317 51.2946L320 45.2946L325 39.2946L337 33.2946L343 32.2946Z" fill="#284659"/>
<path d="M903 34.2946H922V105.295H966V122.295H903V34.2946Z" fill="#284659"/>
<path d="M1001 51.2946H1023L1033 55.2946L1040 61.2946L1044 70.2946L1045 79.2946L1043 89.2946L1037 98.2946L1031 102.295L1025 104.295H1001V51.2946Z" fill="#FAF5F0"/>
<path d="M776 34.2946H795V122.295H776V34.2946Z" fill="#284659"/>
<path d="M544 155.295H570L579 158.295L584 164.295L585 167.295V177.295L582 183.295L577 187.295H575L585 203.295L587 206.295H574L563 190.295L554 189.295L555 206.295H544V155.295Z" fill="#284659"/>
<path d="M680 155.295H690L706 176.295L713 186.295L714 155.295H724V206.295H714L701 188.295L691 174.295L690 206.295H680V155.295Z" fill="#284659"/>
<path d="M349 155.295H359L373 173.295L382 186.295L383 155.295H393V206.295H384L376 196.295L363 178.295L360 174.295L359 206.295H349V155.295Z" fill="#284659"/>
<path d="M627 155.295H638L654 194.295L658 204.295V206.295H647L643 196.295V194.295L622 195.295L617 206.295H606L616 181.295L627 155.295Z" fill="#284659"/>
<path d="M816 155.295H853V164.295H827V176.295H850V185.295H827V197.295H854V206.295H816V155.295Z" fill="#284659"/>
<path d="M477 155.295H487L488 188.295L490 194.295L497 196.295L504 195.295L508 191.295L509 188.295L510 155.295H520V191.295L516 200.295L509 205.295L506 206.295H491L483 202.295L478 195.295L477 192.295V155.295Z" fill="#284659"/>
<path d="M431 154.295H439L449 157.295L453 160.295L451 165.295L447 169.295L443 166.295L433 164.295L429 166.295V171.295L435 174.295L447 178.295L453 183.295L455 189.295L454 197.295L450 203.295L444 206.295L435 207.295L425 205.295L415 199.295L421 191.295L432 196.295H440L443 194.295L442 189.295L422 181.295L418 176.295L417 174.295V166.295L420 160.295L425 156.295L431 154.295Z" fill="#284659"/>
<path d="M768 154.295H779L789 158.295L793 161.295L791 165.295L786 170.295L778 165.295H770L764 168.295L760 174.295L759 177.295V184.295L763 192.295L767 195.295L770 196.295H777L785 192.295H789L793 196.295L792 200.295L782 206.295L777 207.295H770L760 204.295L752 197.295L748 189.295L747 185.295V176.295L750 167.295L757 159.295L765 155.295L768 154.295Z" fill="#284659"/>
<path d="M314 155.295H324V206.295H314V155.295Z" fill="#284659"/>
<path d="M555 164.295L570 165.295L574 169.295V176.295L569 180.295H554V165.295L555 164.295Z" fill="#FAF5F0"/>
<path d="M632 168.295L634 171.295L639 183.295V185.295H626L627 180.295L632 168.295Z" fill="#FAF5EF"/>
<path d="M399 238.295H410L418 243.295L414 249.295L408 246.295H400L395 250.295L394 259.295L397 265.295L401 267.295L410 266.295L415 264.295V266.295H417L418 269.295L413 273.295L407 275.295L397 274.295L391 270.295L387 265.295L386 263.295V250.295L390 243.295L396 239.295L399 238.295Z" fill="#284659"/>
<path d="M314 239.295H322V266.295L339 267.295V274.295H314V239.295Z" fill="#284659"/>
<path d="M351 238.295H358V267.295H376V274.295H351V238.295Z" fill="#284659"/>
</svg>
