<svg width="750" height="762" viewBox="0 0 750 762" fill="none" xmlns="http://www.w3.org/2000/svg">
<path d="M380 0L385 1L413 14L442 25L478 37L516 47L558 56L599 63L609 65L610 66L612 99V132L610 170L606 206L601 235L591 275L582 301L571 326L560 347L548 366L535 383L523 397L509 412L502 419L494 426L481 437L462 451L443 463L425 473L410 481L383 493L370 488L337 472L315 459L299 448L287 439L271 426L256 412L242 398L233 387L220 371L210 356L200 339L192 324L181 298L170 265L162 232L156 194L153 161L152 143V100L154 67L157 64L206 56L243 48L271 41L307 30L335 20L361 9L380 0Z" fill="#284659"/>
<path d="M367 40H369V314H367L360 306L348 296L335 288L316 279L298 274L285 272L265 271L252 272L254 281L261 298L271 317L283 334L291 344L302 356L315 369L326 378L345 392L366 405L382 414L398 406L424 390L440 378L451 369L463 358L476 345L485 334L498 316L508 298L518 276L527 248L533 222L537 194L539 169L540 125L527 124L498 118L472 111L443 101L414 88L396 78L395 77V41L404 44L430 54L460 64L496 74L531 82L581 91V142L578 182L574 212L568 242L560 271L549 300L537 325L526 343L514 360L503 373L494 383L477 400L466 409L449 422L434 432L419 441L392 455L383 459L374 456L352 445L335 435L317 423L305 414L289 401L276 389L264 377L255 366L244 352L232 333L220 310L210 286L201 259L194 231L188 196L184 157L183 137V91L228 83L264 75L300 65L341 51L365 41L367 40Z" fill="#FAF5F0"/>
<path d="M355 135H368L369 136V314H367L360 306L348 296L335 288L316 279L298 274L285 272L265 271H253L252 270L251 263V242L254 223L260 205L269 188L279 175L293 161L309 150L326 142L343 137L355 135Z" fill="#F2A823"/>
<path d="M232 128L239 129L247 137L255 144L269 157V164L266 167L260 168L252 161L239 149L229 140L227 134L230 129L232 128Z" fill="#F2A822"/>
<path d="M222 255L232 256L237 259L238 266L234 270H227L220 268L217 264L218 258L222 255Z" fill="#F2A822"/>
<path d="M293 94L300 95L306 107L314 128L313 133L310 136H303L300 133L289 105V97L293 94Z" fill="#F2A822"/>
<path d="M209 193L219 194L242 202L245 205V212L242 215H235L208 206L206 203V196L209 193Z" fill="#F2A822"/>
<path d="M668 522H712L725 525L734 530L741 536L747 546L750 556V575L746 586L740 595L732 602L722 607L708 610H668V522Z" fill="#284659"/>
<path d="M182 522H200L214 540L240 574L241 522H260V610H243L231 594L217 576L202 556L201 555V610H182V522Z" fill="#284659"/>
<path d="M364 522H383V557H420L419 522H439V610H419L420 574H383V610H364V522Z" fill="#284659"/>
<path d="M504 522H570V539H523L524 557H563V574H523V593H571V610H504V522Z" fill="#284659"/>
<path d="M85 522H104L105 578L108 585L113 590L117 592H130L136 589L141 581L142 522H162L161 584L157 595L150 603L143 608L133 611H113L102 607L94 601L88 592L85 582V522Z" fill="#284659"/>
<path d="M306 520H316L327 522L337 526L344 531L342 535L335 546L330 544L319 539L308 538L302 541L300 547L304 552L333 562L341 568L345 574L346 577V590L342 600L334 607L323 611H304L291 607L280 601L277 597L287 584H290L295 588L303 592L307 593H321L326 588V583L321 579L306 574L292 569L285 564L280 554V542L284 532L293 524L306 520Z" fill="#284659"/>
<path d="M29 520H39L55 524L66 531L64 536L57 546L52 544L42 539L31 538L24 541L23 548L27 552L53 561L63 567L68 575L69 579V589L66 598L61 604L53 609L46 611H27L13 607L0 599L1 595L10 583L14 585L23 591L29 593H43L48 590L49 584L44 579L17 570L9 565L4 558L2 551L3 539L6 533L11 527L23 521L29 520Z" fill="#284659"/>
<path d="M589 522H608V593H652V610H589V522Z" fill="#284659"/>
<path d="M687 539H709L719 543L726 549L730 558L731 567L729 577L723 586L717 590L711 592H687V539Z" fill="#FAF5F0"/>
<path d="M462 522H481V610H462V522Z" fill="#284659"/>
<path d="M336 643H362L371 646L376 652L377 655V665L374 671L369 675H367L377 691L379 694H366L355 678L346 677L347 694H336V643Z" fill="#284659"/>
<path d="M472 643H482L498 664L505 674L506 643H516V694H506L493 676L483 662L482 694H472V643Z" fill="#284659"/>
<path d="M141 643H151L165 661L174 674L175 643H185V694H176L168 684L155 666L152 662L151 694H141V643Z" fill="#284659"/>
<path d="M419 643H430L446 682L450 692V694H439L435 684V682L414 683L409 694H398L408 669L419 643Z" fill="#284659"/>
<path d="M608 643H645V652H619V664H642V673H619V685H646V694H608V643Z" fill="#284659"/>
<path d="M269 643H279L280 676L282 682L289 684L296 683L300 679L301 676L302 643H312V679L308 688L301 693L298 694H283L275 690L270 683L269 680V643Z" fill="#284659"/>
<path d="M223 642H231L241 645L245 648L243 653L239 657L235 654L225 652L221 654V659L227 662L239 666L245 671L247 677L246 685L242 691L236 694L227 695L217 693L207 687L213 679L224 684H232L235 682L234 677L214 669L210 664L209 662V654L212 648L217 644L223 642Z" fill="#284659"/>
<path d="M560 642H571L581 646L585 649L583 653L578 658L570 653H562L556 656L552 662L551 665V672L555 680L559 683L562 684H569L577 680H581L585 684L584 688L574 694L569 695H562L552 692L544 685L540 677L539 673V664L542 655L549 647L557 643L560 642Z" fill="#284659"/>
<path d="M413 725H424L432 730L428 736L422 733H414L409 737L408 746L411 752L415 754L424 753L429 751V753H431L432 756L427 760L421 762L411 761L405 757L401 752L400 750V737L404 730L410 726L413 725Z" fill="#284659"/>
<path d="M106 643H116V694H106V643Z" fill="#284659"/>
<path d="M328 726H336V753L353 754V761H328V726Z" fill="#284659"/>
<path d="M365 725H372V754H390V761H365V725Z" fill="#284659"/>
<path d="M347 652L362 653L366 657V664L361 668H346V653L347 652Z" fill="#FAF5F0"/>
<path d="M424 656L426 659L431 671V673H418L419 668L424 656Z" fill="#FAF5EF"/>
</svg>
