<svg width="224" height="59" viewBox="0 0 224 59" fill="none" xmlns="http://www.w3.org/2000/svg">
<g clip-path="url(#clip0_19_122)">
<path d="M57.2549 48.9288L57.2891 49.0314L60.2803 57.9015L60.3467 58.0997H59.1162L59.082 57.9952L58.1982 55.2404H55.0889L54.2041 57.9952L54.1709 58.0997H52.9707L53.0371 57.9015L56.0293 49.0314L56.0635 48.9288H57.2549ZM56.6445 50.2765C56.3965 51.185 56.1429 52.0149 55.8408 52.8937L55.4141 54.2257H57.873L57.4453 52.8947V52.8956C57.1442 51.9917 56.8918 51.1608 56.6445 50.2765Z" fill="#484A48" stroke="#484A48" stroke-width="0.3"/>
<path d="M73.0713 48.9288V49.9767H69.041V52.7638H72.4414V53.8107H69.041V57.0851H73.1973V58.132H67.8906V48.9288H73.0713Z" fill="#484A48" stroke="#484A48" stroke-width="0.3"/>
<path d="M83.9746 48.7338C85.061 48.7338 85.9795 49.2434 86.5693 49.8519L86.6621 49.9476L86.5781 50.0511L86.1064 50.6351L86.0029 50.7631L85.8848 50.6488C85.3699 50.1489 84.7446 49.8139 83.9746 49.8138C83.4636 49.8138 83.0586 49.9457 82.7852 50.1664C82.5152 50.3843 82.3613 50.6987 82.3613 51.0941C82.3615 51.5127 82.5396 51.7982 82.7998 52.0189C83.0005 52.1892 83.2472 52.3184 83.499 52.4349L83.752 52.5482L83.7529 52.5492L85.0439 53.1342L85.0449 53.1351C85.5358 53.3639 86.0163 53.6253 86.3721 54.014C86.7331 54.4086 86.958 54.925 86.958 55.6429C86.9578 57.1046 85.774 58.2619 83.9434 58.2621C82.6653 58.2621 81.635 57.7426 80.8877 56.9301H80.5479L80.7783 56.6781L81.3135 56.0941L81.4238 55.973L81.5342 56.0931C82.1398 56.7494 82.9831 57.1819 83.9111 57.182C84.4998 57.182 84.9588 57.0263 85.2676 56.7699C85.5736 56.5158 85.7451 56.1529 85.7451 55.7074C85.7451 55.2435 85.5957 54.9503 85.3555 54.724C85.1052 54.4882 84.7518 54.3185 84.3223 54.1215V54.1224L83.0312 53.5375C82.2395 53.178 81.1797 52.5566 81.1797 51.1586C81.1797 49.7556 82.4025 48.7338 83.9746 48.7338Z" fill="#484A48" stroke="#484A48" stroke-width="0.3"/>
<path d="M100.402 48.9288V49.9767H97.6943V58.132H96.5439V49.9767H93.8359V48.9288H100.402Z" fill="#484A48" stroke="#484A48" stroke-width="0.3"/>
<path d="M109.471 48.9288V52.7306H113.516V48.9288H114.667V58.0997H113.516V53.7784H109.471V58.0997H108.32V48.9288H109.471Z" fill="#484A48" stroke="#484A48" stroke-width="0.3"/>
<path d="M128.615 48.9288V49.9767H124.585V52.7638H127.985V53.8107H124.585V57.0851H128.741V58.132H123.434V48.9288H128.615Z" fill="#484A48" stroke="#484A48" stroke-width="0.3"/>
<path d="M142.657 48.9288V49.9767H139.95V58.132H138.799V49.9767H136.092V48.9288H142.657Z" fill="#484A48" stroke="#484A48" stroke-width="0.3"/>
<path d="M151.695 48.9288V58.0997H150.545V48.9288H151.695Z" fill="#484A48" stroke="#484A48" stroke-width="0.3"/>
<path d="M163.888 48.7338C164.98 48.7339 165.805 49.2821 166.328 49.8558L166.415 49.9506L166.334 50.0511L165.862 50.6351L165.752 50.7719L165.635 50.642C165.183 50.1442 164.621 49.8138 163.919 49.8138C163.083 49.814 162.404 50.1585 161.929 50.7787C161.451 51.4031 161.173 52.318 161.173 53.4652C161.173 54.6134 161.444 55.5458 161.915 56.1869C162.383 56.8235 163.055 57.182 163.888 57.182C164.686 57.1819 165.309 56.8507 165.885 56.1937L165.999 56.0629L166.111 56.1947L166.583 56.7474L166.665 56.8422L166.586 56.9398C165.899 57.784 165.007 58.2621 163.856 58.2621C162.742 58.2621 161.77 57.8038 161.08 56.973C160.415 56.1728 160.02 55.036 159.993 53.6478H159.959V53.4984C159.959 52.058 160.36 50.8673 161.057 50.0345C161.755 49.1997 162.742 48.7338 163.888 48.7338Z" fill="#484A48" stroke="#484A48" stroke-width="0.3"/>
<path d="M176.893 48.7338C177.979 48.7338 178.897 49.2433 179.487 49.8519L179.58 49.9476L179.496 50.0511L179.024 50.6351L178.921 50.7631L178.803 50.6488C178.288 50.1489 177.662 49.8138 176.893 49.8138C176.382 49.8139 175.977 49.9459 175.704 50.1664C175.434 50.3843 175.279 50.6986 175.279 51.0941C175.279 51.5129 175.459 51.7981 175.719 52.0189C175.986 52.2458 176.334 52.4002 176.669 52.5482L176.671 52.5492L177.962 53.1342L177.963 53.1351C178.454 53.3639 178.934 53.6253 179.29 54.014C179.651 54.4086 179.877 54.925 179.877 55.6429C179.877 57.1047 178.692 58.2621 176.86 58.2621C175.583 58.262 174.553 57.7426 173.806 56.9301H173.466L173.696 56.6791L174.231 56.0941L174.341 55.973L174.452 56.0931C175.058 56.7495 175.902 57.182 176.83 57.182C177.419 57.1819 177.877 57.0262 178.186 56.7699C178.491 56.5158 178.663 56.1529 178.663 55.7074C178.663 55.2435 178.514 54.9503 178.273 54.724C178.023 54.4881 177.669 54.3186 177.239 54.1215V54.1224L175.949 53.5375H175.948C175.157 53.178 174.098 52.5565 174.098 51.1586C174.098 49.7557 175.32 48.7338 176.893 48.7338Z" fill="#484A48" stroke="#484A48" stroke-width="0.3"/>
<path d="M69.9318 40.6636V40.8911H64.2012V40.6636C65.7756 40.6636 66.4053 40.6311 66.4053 39.104V21.7855C66.4053 20.2583 65.7756 20.2258 64.2012 20.2258V19.9984H69.9318V20.2258C68.3575 20.2258 67.7277 20.2583 67.7277 21.7855V39.104C67.7277 40.6311 68.3575 40.6636 69.9318 40.6636Z" fill="#2A513C" stroke="#2A513C"/>
<path d="M71.5059 40.6636C72.5765 40.6636 73.6785 40.6311 73.6785 39.104V21.7855C73.6785 20.2583 72.5135 20.2258 71.5059 20.2258V19.9984H74.7491L88.5718 38.7466V21.7855C88.5718 20.2583 87.3753 20.2258 86.3677 20.2258V19.9984H91.1852V20.2258C90.1461 20.2258 88.9811 20.2583 88.9811 21.7855V39.3639H89.0126V41.2485H88.6347L74.1508 21.623V39.104C74.1508 40.6311 75.3158 40.6636 76.3234 40.6636V40.8911H71.5374V40.6636H71.5059Z" fill="#2A513C" stroke="#2A513C"/>
<path d="M103.054 40.8911H92.7891V40.6636C94.3641 40.6636 94.9621 40.6311 94.9941 39.104V21.7855C94.9941 20.2583 94.3641 20.2258 92.7891 20.2258V19.9984H102.33C108.564 19.9984 109.1 27.7316 103.936 29.0963C112.217 29.8111 111.933 40.8911 103.086 40.8911H103.054ZM96.3161 20.3883V29.0638H102.298C107.494 29.0638 107.588 20.3883 102.298 20.3883H96.2841H96.3161ZM103.054 29.4212H96.3161V39.104C96.3161 40.4362 96.7571 40.5661 97.9531 40.5986H103.086C110.265 40.5986 110.391 29.4212 103.086 29.4212H103.054Z" fill="#2A513C" stroke="#2A513C"/>
<path d="M128.402 35.8871L127.017 40.826H111.242V40.5985C112.816 40.5985 113.414 40.5661 113.414 39.039V21.7205C113.414 20.1933 112.816 20.1608 111.242 20.1608V19.9333H125.883L127.3 24.8722L127.08 24.9371C125.663 20.3882 125.411 20.3232 122.514 20.3232H114.768V38.9415C114.768 40.2737 115.209 40.4036 116.405 40.4361H123.616C126.828 40.4361 126.796 40.1762 128.182 35.8222H128.402V35.8871ZM148.805 40.6636V40.8586H146.066C144.712 37.8693 142.414 31.0783 138.194 31.0783H134.038V39.0714C134.038 40.5985 134.668 40.6311 136.242 40.6311V40.8586H130.512V40.6311C132.086 40.6311 132.716 40.5985 132.716 39.0714V31.0783H122.514C121.034 31.0783 120.593 31.4032 120.373 32.573H120.215V29.2262H120.373C120.593 30.331 120.971 30.6884 122.294 30.7209H132.716V21.7854C132.716 20.2582 132.086 20.2257 130.512 20.2257V19.9984H138.226C143.39 19.9984 145.94 22.1429 145.972 25.5546C145.972 28.5114 143.956 30.5584 139.926 31.0133C145.72 32.443 146.349 40.696 148.837 40.696L148.805 40.6636ZM134.038 30.7209H138.226C142.477 30.7209 144.46 28.4139 144.46 25.3921C144.46 22.3703 142.319 20.3883 138.226 20.3883H134.038V30.7209Z" fill="#2A513C" stroke="#2A513C"/>
<path d="M167.163 32.8979C167.163 31.4033 166.564 31.3708 164.99 31.3708V31.1433H170.721V31.3708C169.146 31.3708 168.517 31.4033 168.517 32.8979V37.3819C166.281 39.9488 163.164 41.1835 160.141 41.1835C154.725 41.1835 149.498 37.2844 149.498 30.331C149.498 23.3776 154.631 19.7384 160.298 19.7384C163.006 19.7384 165.903 20.6157 168.391 22.4678V24.2224H168.202C166.281 21.4605 163.164 20.1283 160.141 20.1283C155.324 20.1283 150.538 23.4426 150.538 29.6162C150.538 36.3746 155.638 40.3387 160.834 40.3387C163.038 40.3387 165.273 39.6239 167.163 38.0967V32.8979Z" fill="#2A513C" stroke="#2A513C"/>
<path d="M190.116 35.9197L188.699 40.8586H172.924V40.6311C174.499 40.6311 175.128 40.5986 175.128 39.0715V21.753C175.128 20.2258 174.499 20.1933 172.924 20.1933V19.9659H187.597L189.014 24.9047L188.762 24.9697C187.377 20.4208 187.125 20.3233 184.228 20.3233H176.451V29.6487H181.174C182.654 29.6487 183.063 29.3237 183.315 28.154H183.472V31.5332H183.315C183.063 30.3635 182.654 30.0386 181.174 30.0386H176.451V38.974C176.451 40.3062 176.923 40.4362 178.088 40.4687H185.33C188.542 40.4687 188.51 40.2087 189.864 35.8547H190.116V35.9197Z" fill="#2A513C" stroke="#2A513C"/>
<path d="M223.618 41.6384C220.533 44.2703 217.951 45.3425 215.684 45.3425C207.151 45.3425 203.278 30.5584 196.13 30.5584C195.658 30.5584 195.123 30.6234 194.588 30.7859V39.1365C194.588 40.6636 195.217 40.6961 196.792 40.6961V40.9235H191.061V40.6961C192.635 40.6961 193.265 40.6636 193.265 39.1365V21.8179C193.265 20.2908 192.635 20.2583 191.061 20.2583V20.0309H198.775C204.443 20.0309 206.993 22.6303 206.993 25.5871C206.993 29.8111 203.498 31.5332 200.003 31.1108C205.482 34.3601 209.292 44.2378 216.408 44.2378C218.423 44.2378 220.722 43.458 223.429 41.4759L223.587 41.6384H223.618ZM196.634 30.1035C197.043 30.1035 197.453 30.1685 197.894 30.2335C197.894 30.2335 197.957 30.2335 197.957 30.266C198.02 30.266 198.051 30.2985 198.114 30.2985L198.397 30.3635C198.397 30.3635 198.492 30.396 198.523 30.396C199.153 30.5584 199.814 30.6234 200.444 30.6234C203.278 30.6234 205.639 28.9338 205.639 25.4896C205.639 22.7602 203.53 20.3558 198.807 20.3558H194.619V30.396C195.312 30.1685 196.036 30.071 196.666 30.071L196.634 30.1035Z" fill="#2A513C" stroke="#2A513C"/>
<path d="M40.8369 22.2078L33.1226 40.2736C35.5786 44.5951 38.6014 47.9094 43.104 48.6892V48.8842C33.532 47.1945 29.785 37.5118 26.0066 28.5113L20.5594 41.2809H20.276L12.121 22.2403C11.2708 20.5182 11.0504 20.2258 9.28711 20.2258V19.9983H14.5139V20.2258C12.6877 20.2258 12.6562 20.4532 13.8842 23.2476L20.9058 39.5263L25.8492 28.024C22.669 20.4532 19.3629 13.4998 12.4988 12.2326C12.2154 12.1676 11.9005 12.1351 11.6172 12.0701C11.6172 12.0051 11.6172 11.9402 11.6172 11.8752C11.8691 11.9077 12.1524 11.9402 12.4043 12.0051C24.3378 14.1172 27.2661 29.6161 32.9337 39.8187L40.0812 23.0851C41.2462 20.4207 40.6165 20.1933 38.6328 20.1933V19.9658H43.8911V20.1933C42.1909 20.1933 41.75 20.1933 40.9314 22.1428L40.8369 22.2078Z" fill="#2A513C" stroke="#2A513C"/>
<path d="M62.5941 35.9197L61.1772 40.8586H45.4023V40.6311C46.9766 40.6311 47.6063 40.5986 47.6063 39.0715V21.753C47.6063 20.2258 46.9766 20.1933 45.4023 20.1933V19.9659H60.0751L61.492 24.9047L61.2401 24.9697C59.8547 20.4208 59.6028 20.3233 56.706 20.3233H48.9288V29.6487H53.6518C55.1317 29.6487 55.541 29.3237 55.7929 28.154H55.9504V31.5332H55.7929C55.541 30.3635 55.1317 30.0386 53.6518 30.0386H48.9288V38.974C48.9288 40.3062 49.4011 40.4362 50.5661 40.4687H57.8081C61.0197 40.4687 60.9882 40.2087 62.3422 35.8547H62.5941V35.9197Z" fill="#2A513C" stroke="#2A513C"/>
<path d="M24.0526 7.29883L23.8983 7.36233L23.8963 7.36333C23.8951 7.36383 23.8928 7.36433 23.8905 7.36523C23.8858 7.36713 23.8793 7.37063 23.8709 7.37403C23.8543 7.38083 23.8309 7.38993 23.8045 7.40043C23.753 7.42083 23.6848 7.44653 23.6317 7.46483L23.4647 7.52243L23.3553 7.38473C21.124 4.57753 18.1393 2.39063 14.8768 1.06641C12.9214 3.53783 11.5923 6.49593 11.0125 9.61033L11.0135 9.61133C10.8898 10.3134 10.7966 11.0487 10.7342 11.7529V11.9482L10.7333 11.956C10.6089 13.9124 10.7963 15.8938 11.4139 17.7422C11.5403 18.1008 11.6608 18.443 11.8104 18.7519L11.9852 19.1113H11.2323L11.1668 18.9599C11.0378 18.6602 10.9415 18.3935 10.8456 18.0967L10.7245 17.7236C10.144 15.8575 9.92642 13.9098 10.0448 11.9355V11.7363L10.0458 11.7275C10.3308 7.64353 11.9983 3.59873 14.453 0.48438V0.25293H14.8436L14.8875 0.269529C18.3909 1.61713 21.6078 3.91763 23.9979 6.91013L24.0526 6.97853V7.29883Z" fill="#E4BEB9" stroke="#E4BEB9"/>
<path d="M25.4326 9.04844C25.8394 9.71534 26.2106 10.4179 26.5449 11.1432L26.8671 11.8756L27.0263 12.2701C28.6215 16.355 28.5536 20.8399 27.4765 25.0318L27.3251 25.6226L27.0185 25.0953C26.963 24.9999 26.9181 24.897 26.8798 24.8101C26.8395 24.7185 26.8054 24.6427 26.7666 24.5758L26.7148 24.4869L26.7412 24.3873C27.4266 21.7186 27.643 18.8932 27.2392 16.1685V16.1666C26.8981 13.7344 26.0297 11.46 24.7558 9.40784L24.5898 9.14124L24.8867 9.03964C24.9881 9.00474 25.0624 8.97784 25.1054 8.95574L25.3115 8.84924L25.4326 9.04844Z" fill="#E4BEB9" stroke="#E4BEB9"/>
<path d="M9.19917 11.495L9.44237 11.5028V12.1962L9.18657 12.1903C5.43917 12.1018 2.00207 12.8798 1 13.1337C1.12783 14.0114 1.62507 16.7569 3.08687 19.6581C4.65447 22.7061 7.61227 26.5486 13.1182 28.0643L13.6592 28.203L13.7823 28.2333L13.8311 28.3505L13.9258 28.578L14.0694 28.9237H13.6348L13.6065 28.9169C7.40287 27.4649 4.10947 23.2716 2.45117 19.9481C1.52766 18.1241 0.978263 16.3755 0.660163 15.079C0.501073 14.4305 0.399833 13.8938 0.337893 13.5165C0.306953 13.328 0.285863 13.1786 0.272463 13.0751C0.265773 13.0234 0.260983 12.9826 0.257813 12.954C0.256233 12.9397 0.254763 12.9276 0.253913 12.9188C0.253593 12.9158 0.251963 12.8977 0.251953 12.8827V12.535H0.538094L0.706053 12.493C0.831953 12.4611 1.01444 12.4155 1.24512 12.3612C1.70637 12.2527 2.36257 12.1096 3.15917 11.9706C4.75157 11.6926 6.91017 11.4294 9.19917 11.495Z" fill="#E4BEB9" stroke="#E4BEB9"/>
<path d="M15.8194 14.1597L15.6377 14.3511L15.8057 14.437L15.5772 14.6792C14.3319 15.9965 13.2399 17.477 12.2706 19.0259L12.1963 19.144H11.3965L11.6241 18.7651C12.6094 17.1252 13.7532 15.6157 15.0567 14.2378L15.1631 14.3394L15.2071 14.1597H15.8194Z" fill="#E4BEB9" stroke="#E4BEB9"/>
<path d="M33.6651 6.00369H33.9708V6.27518C36.252 12.5458 34.0044 19.4708 30.2051 24.5349L30.1963 24.5476L30.1622 24.5818C29.652 25.2709 28.8656 26.2127 28.2325 26.866L27.961 27.1463L27.8204 26.782C27.7547 26.6125 27.7027 26.4823 27.6309 26.3836L27.5069 26.2137L27.6534 26.0633C28.0984 25.604 28.596 25.0539 29.0401 24.5232L29.4629 24.0027C33.1745 19.2142 35.3557 12.6885 33.3819 6.73319C30.4232 6.75709 27.4936 7.36438 24.711 8.43728L24.7032 8.44019C24.6021 8.47499 24.5274 8.50109 24.4844 8.52319L24.4747 8.52809L24.4639 8.53299C21.9395 9.56219 19.6006 11.01 17.5098 12.781L17.3819 12.8894L17.2335 12.8123C17.2035 12.7968 17.1647 12.7771 17.1299 12.7566C17.0981 12.7378 17.0506 12.7079 17.0108 12.6668L16.8262 12.4764L17.0274 12.3035C19.1563 10.4673 21.5726 8.95768 24.1817 7.90698L24.1934 7.90208L24.4122 7.81908L24.4229 7.81329L24.4336 7.80939C26.3102 7.05439 28.2816 6.53038 30.3155 6.23508C31.4265 6.07138 32.5439 5.97069 33.6651 6.00369Z" fill="#E4BEB9" stroke="#E4BEB9"/>
</g>
<defs>
<clipPath id="clip0_19_122">
<rect width="223.62" height="58.11" fill="white"/>
</clipPath>
</defs>
</svg>
