<svg width="512" height="512" viewBox="0 0 512 512" fill="none" xmlns="http://www.w3.org/2000/svg">
<rect width="512" height="512" fill="#FFD53E"/>
<path d="M182.246 56L188.982 60.2122V177.312C212.749 161.587 239.041 153.724 267.86 153.724C309.404 153.724 343.836 168.233 371.158 197.25C398.105 226.268 411.579 262.025 411.579 304.522C411.579 347.206 398.012 382.963 370.877 411.794C343.555 440.812 309.217 455.32 267.86 455.32C231.743 455.32 200.866 442.403 175.228 416.568V448.3H100V65.2669L182.246 56ZM253.544 229.825C233.708 229.825 217.146 236.565 203.86 250.044C190.573 263.897 183.93 282.057 183.93 304.522C183.93 326.988 190.573 345.053 203.86 358.72C216.959 372.386 233.52 379.219 253.544 379.219C274.69 379.219 291.813 372.105 304.912 357.877C317.825 343.836 324.281 326.051 324.281 304.522C324.281 282.993 317.731 265.114 304.632 250.886C291.532 236.845 274.503 229.825 253.544 229.825Z" fill="#212121"/>
</svg>
