<svg width="838" height="283" viewBox="0 0 838 283" fill="none" xmlns="http://www.w3.org/2000/svg">
<path d="M223.592 131.527L213.593 175.755C213.208 178.062 210.516 179.985 207.824 179.985H195.518C195.518 179.985 193.979 180.754 193.595 181.523C182.442 219.597 167.059 246.133 147.06 261.901C129.754 275.362 108.602 281.515 80.5273 281.515C55.1448 281.515 38.2231 273.439 23.6089 257.286C4.37976 236.134 -3.31192 201.137 1.30308 159.217C9.76392 80.3779 50.9143 0.769135 129.754 0.769135C153.598 0.769135 172.443 8.07624 185.518 22.6904C199.363 38.4583 206.286 61.9179 206.286 92.6846C206.286 95.3766 203.978 97.6841 201.286 97.6841H143.599C141.676 97.6841 139.753 95.7612 139.753 93.8383C139.369 72.6862 132.831 62.3025 120.524 62.3025C98.2181 62.3025 85.5268 92.3 78.6043 108.837C68.9898 131.912 63.9902 157.295 65.1439 182.677C65.5285 194.215 67.4514 210.752 78.6043 217.674C88.6035 223.827 102.449 219.597 110.909 213.059C119.37 206.521 126.293 194.599 128.985 184.215C129.369 182.677 129.369 181.523 128.985 181.139C128.6 180.754 127.446 180.37 126.677 180.37H111.679C111.679 180.37 108.602 179.6 107.448 178.447C106.679 177.677 106.294 176.139 106.679 174.985L116.678 131.143C117.063 128.835 119.37 127.297 121.678 126.912H218.977C218.977 126.912 219.362 126.912 219.746 126.912C222.438 126.912 223.977 129.605 223.977 132.297L223.592 131.527Z" fill="#0AE448"/>
<path d="M419.482 81.1471C419.482 83.8391 417.174 86.1466 414.482 86.1466H361.409C357.948 86.1466 354.872 83.4546 354.872 79.9933C354.872 64.61 349.487 56.9183 338.719 56.9183C327.951 56.9183 320.644 63.8408 320.644 75.3783C320.644 88.4542 327.951 100.376 349.103 120.759C376.793 146.911 387.946 169.986 387.561 200.752C386.792 250.364 352.949 282.284 301.799 282.284C275.647 282.284 255.649 275.362 242.573 261.517C229.113 247.672 222.959 226.904 224.113 200.368C224.113 197.676 226.421 195.368 229.113 195.368H284.108C284.108 195.368 287.185 196.137 287.954 197.291C288.723 198.445 289.108 199.599 289.108 200.752C288.339 210.367 290.262 217.29 294.107 221.52C296.415 224.212 299.876 225.366 304.107 225.366C314.106 225.366 320.259 218.059 320.259 205.752C320.259 194.984 317.182 185.369 298.338 166.14C274.109 142.68 252.572 118.452 253.342 80.3779C253.726 58.0721 262.572 38.0737 277.955 23.4596C294.492 8.07624 316.798 0 342.949 0C369.101 0 389.099 7.69166 401.791 22.3058C414.097 36.1508 419.866 56.1492 419.482 81.5317V81.1471Z" fill="#0AE448"/>
<path d="M610.552 272.862V9.80687C610.936 7.11479 608.629 4.80728 605.937 4.80728H523.636C520.944 4.80728 519.79 7.1148 519.021 8.65313L399.8 270.939C398.646 274.016 400.954 277.477 404.415 277.477H462.103C465.179 277.477 467.102 276.708 468.256 274.4L479.793 247.095C481.332 243.634 481.332 243.249 485.562 243.249H540.558C544.403 243.249 544.403 243.249 544.403 247.095L543.25 272.477C543.25 275.169 545.557 277.477 548.249 277.477H606.321C606.321 277.477 609.013 276.708 610.167 275.939C610.936 275.169 611.321 273.631 611.321 272.477L610.552 272.862ZM508.637 185.177C508.637 185.177 507.868 185.177 507.483 185.177C506.714 185.177 506.33 184.408 506.33 183.639C506.33 183.254 506.33 182.869 506.714 182.1L547.865 80.1856C547.865 80.1856 548.634 78.2627 549.018 77.109C549.788 75.5706 550.557 75.5706 550.941 76.7244C550.941 77.4935 546.326 181.331 546.326 181.331C545.942 185.177 545.942 185.561 542.096 185.561H509.022V185.177H508.637Z" fill="#0AE448"/>
<path d="M741.311 4.80729H697.469C695.161 4.80729 692.469 5.96106 692.084 8.65314L631.32 272.477C631.32 272.477 631.32 274.785 632.089 275.939C633.243 277.092 634.782 277.861 636.32 277.861H690.931C694.007 277.861 695.93 276.323 696.315 274.016L702.853 244.018C703.237 241.711 702.853 239.788 700.545 238.634C699.392 238.249 698.622 237.48 697.469 237.096L687.854 232.096L678.624 227.096L675.163 225.174C675.163 225.174 674.009 224.404 674.394 223.635C674.394 222.481 675.163 221.712 676.317 221.712H706.314C715.16 221.712 724.39 221.328 732.85 219.789C794.768 208.252 835.919 158.641 837.072 91.3385C838.226 33.651 805.921 4.4227 741.696 4.4227L741.311 4.80729ZM726.312 161.717H725.159C722.467 161.717 722.082 161.717 722.082 161.717L739.388 85.5698C739.773 83.2623 739.773 82.1085 738.619 81.3394C736.696 80.5702 711.698 67.1098 711.698 67.1098C710.929 67.1098 710.544 66.3406 710.929 65.5715C710.929 64.4177 711.698 63.6485 712.852 63.6485H752.849C765.155 63.6485 772.078 75.186 771.693 94.0306C771.309 126.72 755.541 160.948 726.697 162.102L726.312 161.717Z" fill="#0AE448"/>
</svg>
