<?xml version="1.0" encoding="UTF-8"?> <svg xmlns="http://www.w3.org/2000/svg" xmlns:xlink="http://www.w3.org/1999/xlink" width="1200px" height="1200px" viewBox="0 0 1200 1200" version="1.1"><title>Artboard</title><defs><linearGradient x1="50%" y1="0%" x2="50%" y2="120.800979%" id="linearGradient-1"><stop stop-color="#EC008C" offset="0%"></stop><stop stop-color="#EC0068" offset="100%"></stop></linearGradient><path d="M0,48 L0,212 C5.41083001e-16,216.418278 3.581722,220 8,220 L248,220 C252.418278,220 256,216.418278 256,212 L256,78 C256,73.581722 252.418278,70 248,70 L164.28147,70 C161.606645,70 159.108794,68.6631909 157.625068,66.4376016 L142.374932,43.5623984 C140.891206,41.3368091 138.393355,40 135.71853,40 L8,40 C3.581722,40 3.01163068e-15,43.581722 0,48 Z" id="path-2"></path></defs><g id="Artboard" stroke="none" stroke-width="1" fill="none" fill-rule="evenodd"><g id="Folder"><use fill="#EC008C" xlink:href="#path-2"></use><use fill="url(#linearGradient-1)" xlink:href="#path-2"></use></g><rect id="Rectangle" fill="#EC008C" x="0" y="0" width="1200" height="1200"></rect><g id="Face" transform="translate(400, 420)" stroke="#FFFFFF" stroke-width="18"><path d="M80,40 C80,17.90861 62.09139,0 40,0 C17.90861,0 0,17.90861 0,40" id="Eye---Left" stroke-linecap="round"></path><path d="M400,40 C400,17.90861 382.09139,0 360,0 C337.90861,0 320,17.90861 320,40" id="Eye---Right" stroke-linecap="round"></path><path d="M200,359.707012 C288.36556,359.707012 360,287.980864 360,199.707012 C360,188 40,188 40,199.707012 C40,288.072572 111.63444,359.707012 200,359.707012 Z" id="Mouth"></path></g></g></svg> 