<svg xmlns="http://www.w3.org/2000/svg" width="134" height="37" viewBox="0 0 134 37" fill="none"><path d="M11.1963 14.3353L22.1715 28.6181H30.6286L15.3804 8.89631L11.1963 14.3353Z" fill="#202020"></path><path d="M30.6812 -1.52588e-05L15.3993 19.788L11.1963 14.3353L22.2241 -1.52588e-05H30.6812Z" fill="#202020"></path><path d="M0 28.6179L10.036 15.8678L14.2391 21.3205L8.45706 28.6179H0Z" fill="#202020"></path><path d="M0 0.000110626L10.036 12.75L14.2391 7.29748L8.45706 0.000110626H0Z" fill="#202020"></path><path d="M46.8159 8.96472H48.8713V28.6487C48.8713 30.3894 48.538 31.8831 47.8714 33.1299C47.2171 34.3768 46.2851 35.3335 45.0753 36.0001C43.8778 36.6668 42.4643 37.0001 40.8348 37.0001C40.0077 37.0001 39.1559 36.8705 38.2794 36.6112C37.4152 36.3643 36.5943 35.9816 35.8166 35.4631C35.0512 34.957 34.3969 34.3274 33.8537 33.5744L35.0944 32.2226C35.9092 33.2102 36.7795 33.9324 37.7053 34.3891C38.6312 34.8582 39.6312 35.0928 40.7052 35.0928C41.9767 35.0928 43.0507 34.8397 43.9272 34.3336C44.816 33.8274 45.4888 33.0991 45.9456 32.1485C46.4147 31.198 46.6493 30.056 46.6493 28.7228V13.3719L46.8159 8.96472ZM32.7427 19.1863V18.7975C32.7427 17.242 32.9155 15.8408 33.2612 14.594C33.6192 13.3348 34.1315 12.2608 34.7981 11.372C35.4647 10.4708 36.2733 9.78565 37.2239 9.31655C38.1868 8.83509 39.2732 8.59437 40.483 8.59437C41.6434 8.59437 42.6742 8.78571 43.5754 9.16841C44.4765 9.5511 45.2543 10.1005 45.9086 10.8165C46.5628 11.5325 47.0875 12.3843 47.4825 13.3719C47.8899 14.3595 48.1862 15.4582 48.3714 16.668V21.6121C48.2232 22.7478 47.9516 23.791 47.5566 24.7416C47.1616 25.6798 46.6369 26.5007 45.9826 27.2044C45.3283 27.8957 44.5383 28.4327 43.6124 28.8154C42.6989 29.1857 41.6434 29.3709 40.4459 29.3709C39.2485 29.3709 38.1745 29.124 37.2239 28.6302C36.2733 28.1364 35.4647 27.4389 34.7981 26.5377C34.1315 25.6242 33.6192 24.544 33.2612 23.2972C32.9155 22.0504 32.7427 20.6801 32.7427 19.1863ZM34.9648 18.7975V19.1863C34.9648 20.3591 35.082 21.4455 35.3166 22.4454C35.5512 23.4453 35.9092 24.3157 36.3906 25.0563C36.8721 25.797 37.4831 26.3773 38.2238 26.797C38.9645 27.2167 39.8348 27.4266 40.8348 27.4266C42.1063 27.4266 43.1742 27.1859 44.0383 26.7044C44.9024 26.2106 45.5876 25.5625 46.0937 24.7601C46.5999 23.9453 46.9702 23.0565 47.2048 22.0936V16.3346C47.069 15.6804 46.8591 15.0137 46.5752 14.3348C46.3036 13.6558 45.9209 13.0324 45.4271 12.4645C44.9457 11.8843 44.3284 11.4214 43.5754 11.0757C42.8347 10.7177 41.9335 10.5387 40.8718 10.5387C39.8595 10.5387 38.9769 10.7486 38.2238 11.1683C37.4831 11.588 36.8721 12.1744 36.3906 12.9274C35.9092 13.6681 35.5512 14.5385 35.3166 15.5384C35.082 16.5383 34.9648 17.6247 34.9648 18.7975Z" fill="#202020"></path><path d="M55.3539 12.2793V29.0006H53.1503V8.96472H55.2984L55.3539 12.2793ZM62.4461 8.81658L62.3905 10.8535C62.1436 10.8165 61.9029 10.7856 61.6684 10.7609C61.4338 10.7362 61.1807 10.7239 60.9091 10.7239C59.9462 10.7239 59.1006 10.9029 58.3723 11.2609C57.6562 11.6065 57.0513 12.0942 56.5576 12.7238C56.0638 13.341 55.6872 14.0693 55.428 14.9088C55.1687 15.7359 55.0206 16.6248 54.9836 17.5753L54.1688 17.8901C54.1688 16.5815 54.3046 15.3656 54.5762 14.2422C54.8478 13.1188 55.2613 12.1374 55.8169 11.2979C56.3847 10.4461 57.0946 9.78565 57.9464 9.31655C58.8105 8.83509 59.8228 8.59437 60.9832 8.59437C61.2671 8.59437 61.5449 8.61906 61.8165 8.66844C62.1004 8.70547 62.3103 8.75485 62.4461 8.81658Z" fill="#202020"></path><path d="M66.8732 8.96472V29.0006H64.6697V8.96472H66.8732ZM64.2808 3.16877C64.2808 2.74904 64.4104 2.39721 64.6697 2.11327C64.9412 1.81699 65.3116 1.66885 65.7807 1.66885C66.2498 1.66885 66.6202 1.81699 66.8918 2.11327C67.1757 2.39721 67.3176 2.74904 67.3176 3.16877C67.3176 3.57615 67.1757 3.92798 66.8918 4.22426C66.6202 4.50819 66.2498 4.65016 65.7807 4.65016C65.3116 4.65016 64.9412 4.50819 64.6697 4.22426C64.4104 3.92798 64.2808 3.57615 64.2808 3.16877Z" fill="#202020"></path><path d="M84.4292 25.1119V0.55781H86.6513V29.0006H84.5774L84.4292 25.1119ZM70.5226 19.1863V18.7975C70.5226 17.242 70.7016 15.8408 71.0596 14.594C71.4177 13.3348 71.93 12.2608 72.5966 11.372C73.2756 10.4708 74.0903 9.78565 75.0409 9.31655C75.9915 8.83509 77.0655 8.59437 78.2629 8.59437C79.4357 8.59437 80.4727 8.78571 81.3738 9.16841C82.275 9.5511 83.0466 10.1005 83.6885 10.8165C84.3428 11.5325 84.8675 12.3843 85.2625 13.3719C85.6699 14.3595 85.9662 15.4582 86.1513 16.668V21.6121C86.0032 22.7478 85.7316 23.791 85.3366 24.7416C84.9415 25.6798 84.4169 26.5007 83.7626 27.2044C83.1083 27.8957 82.3182 28.4327 81.3924 28.8154C80.4788 29.1857 79.4233 29.3709 78.2259 29.3709C77.0408 29.3709 75.9729 29.124 75.0224 28.6302C74.0718 28.1364 73.2632 27.4389 72.5966 26.5377C71.93 25.6242 71.4177 24.544 71.0596 23.2972C70.7016 22.0504 70.5226 20.6801 70.5226 19.1863ZM72.7447 18.7975V19.1863C72.7447 20.3591 72.862 21.4455 73.0966 22.4454C73.3311 23.4453 73.6891 24.3157 74.1706 25.0563C74.652 25.797 75.2631 26.3773 76.0038 26.797C76.7445 27.2167 77.621 27.4266 78.6333 27.4266C79.9048 27.4266 80.9726 27.1859 81.8368 26.7044C82.7009 26.2106 83.3922 25.5625 83.9107 24.7601C84.4292 23.9453 84.8057 23.0565 85.0403 22.0936V16.3346C84.8922 15.6804 84.6761 15.0137 84.3922 14.3348C84.1082 13.6558 83.7194 13.0324 83.2256 12.4645C82.7441 11.8843 82.1269 11.4214 81.3738 11.0757C80.6331 10.7177 79.732 10.5387 78.6703 10.5387C77.6457 10.5387 76.763 10.7486 76.0223 11.1683C75.2816 11.588 74.6644 12.1744 74.1706 12.9274C73.6891 13.6681 73.3311 14.5385 73.0966 15.5384C72.862 16.5383 72.7447 17.6247 72.7447 18.7975Z" fill="#202020"></path><path d="M90.7637 27.6488C90.7637 27.2167 90.8995 26.8525 91.171 26.5563C91.455 26.2476 91.8377 26.0933 92.3191 26.0933C92.8129 26.0933 93.2018 26.2415 93.4857 26.5377C93.7697 26.834 93.9116 27.2044 93.9116 27.6488C93.9116 28.0685 93.7697 28.4265 93.4857 28.7228C93.2018 29.0191 92.8129 29.1672 92.3191 29.1672C91.8377 29.1672 91.455 29.0191 91.171 28.7228C90.8995 28.4265 90.7637 28.0685 90.7637 27.6488Z" fill="#202020"></path><path d="M105.912 27.4636C106.851 27.4636 107.727 27.2908 108.542 26.9451C109.369 26.5871 110.048 26.0625 110.579 25.3711C111.122 24.6675 111.431 23.8095 111.505 22.7972H113.616C113.554 24.0688 113.165 25.2045 112.449 26.2044C111.745 27.192 110.819 27.9698 109.671 28.5376C108.536 29.0931 107.283 29.3709 105.912 29.3709C104.517 29.3709 103.283 29.1178 102.209 28.6117C101.147 28.1055 100.258 27.4019 99.5424 26.5007C98.8264 25.5872 98.2832 24.5255 97.9129 23.3157C97.5549 22.0936 97.3759 20.7788 97.3759 19.3715V18.5938C97.3759 17.1864 97.5549 15.8779 97.9129 14.6681C98.2832 13.4459 98.8264 12.3843 99.5424 11.4831C100.258 10.5696 101.147 9.85972 102.209 9.35358C103.271 8.84744 104.499 8.59437 105.894 8.59437C107.326 8.59437 108.61 8.88447 109.745 9.46469C110.894 10.0449 111.807 10.8658 112.486 11.9275C113.177 12.9892 113.554 14.2484 113.616 15.7051H111.505C111.443 14.631 111.159 13.7052 110.653 12.9274C110.147 12.1497 109.48 11.551 108.653 11.1313C107.826 10.7115 106.906 10.5017 105.894 10.5017C104.758 10.5017 103.789 10.7239 102.987 11.1683C102.184 11.6004 101.53 12.1991 101.024 12.9645C100.53 13.7175 100.166 14.5817 99.9313 15.5569C99.6967 16.5198 99.5794 17.5321 99.5794 18.5938V19.3715C99.5794 20.4455 99.6905 21.4701 99.9127 22.4454C100.147 23.4083 100.511 24.2663 101.005 25.0193C101.511 25.7724 102.166 26.3711 102.968 26.8155C103.783 27.2476 104.764 27.4636 105.912 27.4636Z" fill="#202020"></path><path d="M115.339 19.2974V18.6864C115.339 17.2297 115.549 15.8841 115.969 14.6496C116.389 13.4151 116.987 12.3472 117.765 11.446C118.555 10.5449 119.499 9.84738 120.598 9.35358C121.697 8.84744 122.919 8.59437 124.265 8.59437C125.623 8.59437 126.851 8.84744 127.95 9.35358C129.048 9.84738 129.993 10.5449 130.783 11.446C131.573 12.3472 132.178 13.4151 132.597 14.6496C133.017 15.8841 133.227 17.2297 133.227 18.6864V19.2974C133.227 20.7541 133.017 22.0997 132.597 23.3342C132.178 24.5564 131.573 25.618 130.783 26.5192C130.005 27.4204 129.067 28.1241 127.968 28.6302C126.869 29.124 125.647 29.3709 124.302 29.3709C122.944 29.3709 121.715 29.124 120.617 28.6302C119.518 28.1241 118.574 27.4204 117.784 26.5192C116.993 25.618 116.389 24.5564 115.969 23.3342C115.549 22.0997 115.339 20.7541 115.339 19.2974ZM117.543 18.6864V19.2974C117.543 20.3961 117.691 21.4393 117.987 22.4269C118.283 23.4021 118.716 24.2724 119.283 25.0378C119.851 25.7909 120.555 26.3834 121.394 26.8155C122.234 27.2476 123.203 27.4636 124.302 27.4636C125.388 27.4636 126.345 27.2476 127.172 26.8155C128.011 26.3834 128.715 25.7909 129.283 25.0378C129.851 24.2724 130.277 23.4021 130.561 22.4269C130.857 21.4393 131.005 20.3961 131.005 19.2974V18.6864C131.005 17.6 130.857 16.5692 130.561 15.594C130.277 14.6187 129.845 13.7484 129.264 12.983C128.696 12.2176 127.993 11.6127 127.153 11.1683C126.314 10.7239 125.351 10.5017 124.265 10.5017C123.178 10.5017 122.215 10.7239 121.376 11.1683C120.549 11.6127 119.845 12.2176 119.265 12.983C118.697 13.7484 118.265 14.6187 117.969 15.594C117.685 16.5692 117.543 17.6 117.543 18.6864Z" fill="#202020"></path></svg>